<svg xmlns="http://www.w3.org/2000/svg" version="1.1" xmlns:xlink="http://www.w3.org/1999/xlink" width="1000" height="1000"><style>
    #light-icon {
      display: inline;
    }
    #dark-icon {
      display: none;
    }

    @media (prefers-color-scheme: dark) {
      #light-icon {
        display: none;
      }
      #dark-icon {
        display: inline;
      }
    }
  </style><g id="light-icon"><svg xmlns="http://www.w3.org/2000/svg" version="1.1" xmlns:xlink="http://www.w3.org/1999/xlink" width="1000" height="1000"><g clip-path="url(#SvgjsClipPath1122)"><rect width="1000" height="1000" fill="#000000"></rect><g transform="matrix(10,0,0,10,0,0)"><svg xmlns="http://www.w3.org/2000/svg" version="1.1" xmlns:xlink="http://www.w3.org/1999/xlink" width="100" height="100"><svg id="Capa_12" xmlns="http://www.w3.org/2000/svg" viewBox="0 0 100 100"><defs><style>.cls-1{fill:#fff;}</style><clipPath id="SvgjsClipPath1122"><rect width="1000" height="1000" x="0" y="0" rx="500" ry="500"></rect></clipPath></defs><path d="M100,0v100H0V0h100ZM60.16,23.44c-.04-1.35-.35-2.66-1.02-3.84-.92-1.64-2.54-2.83-4.11-3.8-.46-.28-1.75-1.1-2.19-1.23-.1-.03-.26-.04-.36-.01-.02,0-.27.2-.28.22-.11.38.29.93.34,1.36.08.76-.35,2.08-.69,2.76-.08.16-.45.8-.6.82-1.15-.23-2.34-.41-3.51-.2-.1-.02-.4-.67-.5-.82-1.05-1.6-3.6-2.62-5.39-3.11-.89-.24-2.28-.62-3.16-.74-.39-.05-.91.04-.88.54,0,.14.38.73.46.95,1.08,2.73.34,5.74-1.05,8.2-.19.33-.94,1.52-1.3,1.53-.74.02-2-.83-2.47-1.4-.21-.26-.56-.96-.81-1.09-.16-.08-.64-.15-.81-.09-.7.25-1.33,1.6-1.59,2.27-.46,1.18-.78,2.68-.84,3.94-.03.55.05,1.09.05,1.64-.05.05-.68-.47-.76-.54-.19-.17-.42-.4-.59-.58-.43-.48-.95-1.42-1.36-1.79-.18-.16-.48-.24-.64-.02-.05.07-.05.17-.09.23s-.25.16-.33.23c-1.95,1.9-3.3,6.8-3.42,9.47-.19,4.12,1.18,7.09,3.98,9.99,1.05,1.08,3.34,2.29,4.86,1.93.73-.17.77-.99.03-1.31s-1.65-.42-2.37-.91c-1.02-.69-2.88-3.33-3.44-4.47-1.92-3.89-1.19-8.69.54-12.52.11-.25.42-.96.57-1.14.05-.07.04-.06.09,0,.14.15.26.44.4.63.59.79,1.58,1.81,2.66,1.66.19,1.25.67,2.5,1.33,3.58,1.1,1.81,2.88,3.06,4.73,4.01-3.96,3.1-4.31,9.32-1.91,13.48.42.74.94,1.38,1.51,2,.66,9.96,9.4,20.15,20.09,18.41,7.9-1.28,13-8.93,13.9-16.47.28-2.31.08-4.39-.1-6.69-.02-.32.06-.65-.08-.95-.09-.19-.29-.31-.41-.47,1.93-5.01-.37-10.97-4.78-13.82.14-.02.28-.06.42-.07,1.31-.13,2.64-.15,3.95-.29.11-.01.44-.06.49-.14.11-.17-.05-.29-.07-.42-.06-.3.06-.33-.22-.61-.45-.44-2.06-1.13-2.7-1.36-1.55-.56-3.45-.85-5.04-.35-.06-.09.09-1,.1-1.19.07-1.51-.21-3.03-.82-4.41l-.94-1.68c.62.06,1.22-.21,1.72-.55,1.44-.94,2.24-2.77,1.55-4.43,2.01.94,3.81,2.44,5.12,4.23,2.29,3.14,3.96,8.52,3.37,12.39-.11.72-.32,1.44-.43,2.16-.03.21-.2,1.59-.17,1.66.06.13.15.13.27.1s.76-.67.89-.82c1.32-1.53,1.73-3.69,1.68-5.66.22-.03.39.08.61.1.59.05,1.3-.18,1.76-.54.74-.58.96-1.39,1.05-2.29.31.42.58.95.79,1.43.83,1.89,1.38,4.14,1.21,6.21-.01.16-.07.31-.1.46-.5-.42-1.05-.8-1.7-.96-.85-.21-1.97-.08-2.67.48-.98.78-1.43,2.12-1.28,3.34.03.26.2.82.57.59.12-.07.42-1.08.51-1.29,1.03-2.41,2.93-1.37,4.09.25,1.04,1.43,1.78,3.69.93,5.36-.68,1.34-2.37.89-3.25.03-.14-.14-.44-.65-.65-.66-.04,0-.43.06-.47.07-.36.16-.39.74-.28,1.06.05.13.22.18.31.28.95,1.04,1.84,1.99,3.42,1.91.25-.01.6-.12.83-.1.19.02.45.18.66.22,1.11.25,2.1-.17,2.91-.91.06-.05.22-.36.32-.29.73,1.58.43,3.27-.64,4.61-.13.17-.3.38-.46.51-.21.17-1.21.57-.68.92.3.21.86.06,1.17-.08.75-.34,1.17-1.11,1.9-1.47.35.87.35,2.07.15,2.98-.56,2.56-2.54,3.43-4.8,4.13-.47.15-.95.3-1.43.4.37-2.95.27-6.05-.8-8.85-.09-.24-.41-1.06-.55-1.21-.08-.09-.62-.35-.73-.35l-.71.32-.23.77c2.16,4.49,2.38,9.24.52,13.87-4.29,10.64-16.97,16.48-28.03,14.87-4.9-.71-8.12-2.54-12.06-5.32-2.88-2.04-7.39-6.15-7.65-9.88-.03-.37-.04-1.01.07-1.34.54-1.57,1.87-3.66,2.82-5.05.66-.97,1.61-2.01,2.18-3,.13-.22.36-.57.2-.82-.25-.39-.81.12-1.04.31-2.28,1.87-4.76,5.3-5.98,7.99-.26.57-.4.79-.35,1.46.19,2.8,3.16,6.96,5.23,8.79,3.52,3.1,8.03,5.89,12.56,7.17,13.47,3.79,30.45-3.54,34.15-17.64.06-.23.2-1.12.29-1.22.11-.11,2.21-.38,2.57-.46,2.3-.47,4.35-1.6,5.06-3.98.46-1.54.23-3.19-.57-4.58-.08-.13-.46-.64-.48-.69-.06-.2.06-1.07.04-1.41-.09-1.14-.79-2.22-1.6-2.99.23-.57.83-1.05.95-1.68.18-.98-.28-2.11-.77-2.95-.18-.31-1.19-1.94-1.62-1.25l-.42,1.53c0,.05-.07.03-.1,0-.05-.05-.21-.66-.27-.81-.19-.47-.46-1.03-.74-1.46-.12-.18-.6-.72-.63-.83-.03-.1-.02-.16,0-.26.05-.37.29-.9.37-1.3.51-2.54-.27-5.16-1.82-7.19-.19-.24-1.16-1.42-1.37-1.46-.14-.03-.26.02-.36.12-.02.78.03,1.61-.36,2.31-.48.85-1.57,1.39-2.51,1.02-.37-5.43-2.73-11.15-7.64-13.92-1.11-.63-3.32-1.5-4.6-1.31-.36.06-.61.44-.51.79.04.15.37.33.47.46.92,1.19.7,2.79-.26,3.88-.04.05-.32.35-.37.29ZM75.29,42.73l1.95-.56c.34-.34-.05-.59-.39-.68-1.15-.33-2.78.23-3.4,1.28-.22.37-.55,1.43.12,1.42.24-.56.57-.94,1.12-1.21h.06c.57.7,1.16,1.56,1.39,2.43.06.23.09.4.02.64.23.09.37-.1.39-.32.14-1.18-.42-2.24-1.27-3Z"></path><path class="cls-1" d="M60.16,23.44c.05.06.32-.25.37-.29.96-1.09,1.18-2.68.26-3.88-.1-.12-.43-.31-.47-.46-.11-.36.14-.74.51-.79,1.27-.2,3.48.68,4.6,1.31,4.91,2.76,7.27,8.49,7.64,13.92.94.37,2.03-.17,2.51-1.02.39-.7.35-1.53.36-2.31.1-.1.21-.15.36-.12.21.04,1.19,1.22,1.37,1.46,1.55,2.02,2.34,4.65,1.82,7.19-.08.39-.32.93-.37,1.3-.01.1-.02.16,0,.26.04.11.52.65.63.83.28.43.54.99.74,1.46.06.14.22.76.27.81.03.03.09.05.1,0l.42-1.53c.44-.68,1.44.94,1.62,1.25.48.83.95,1.97.77,2.95-.11.62-.71,1.11-.95,1.68.81.76,1.52,1.85,1.6,2.99.03.33-.1,1.21-.04,1.41.01.05.4.56.48.69.8,1.39,1.03,3.04.57,4.58-.71,2.38-2.75,3.51-5.06,3.98-.36.07-2.47.34-2.57.46-.1.1-.23,1-.29,1.22-3.7,14.1-20.67,21.43-34.15,17.64-4.53-1.27-9.05-4.07-12.56-7.17-2.07-1.82-5.04-5.99-5.23-8.79-.04-.67.09-.89.35-1.46,1.21-2.69,3.69-6.12,5.98-7.99.23-.19.79-.7,1.04-.31.16.24-.07.59-.2.82-.56.99-1.51,2.03-2.18,3-.95,1.39-2.27,3.47-2.82,5.05-.11.33-.1.98-.07,1.34.26,3.73,4.77,7.84,7.65,9.88,3.94,2.79,7.16,4.61,12.06,5.32,11.07,1.61,23.74-4.23,28.03-14.87,1.87-4.63,1.64-9.37-.52-13.87l.23-.77.71-.32c.11,0,.65.26.73.35.14.15.46.97.55,1.21,1.07,2.8,1.17,5.9.8,8.85.47-.11.96-.26,1.43-.4,2.26-.71,4.24-1.57,4.8-4.13.2-.91.21-2.11-.15-2.98-.73.36-1.14,1.14-1.9,1.47-.31.14-.87.29-1.17.08-.53-.36.46-.75.68-.92.17-.13.33-.34.46-.51,1.06-1.34,1.36-3.03.64-4.61-.09-.07-.26.24-.32.29-.81.74-1.8,1.16-2.91.91-.2-.05-.47-.21-.66-.22-.23-.02-.59.09-.83.1-1.57.08-2.46-.86-3.42-1.91-.09-.1-.26-.14-.31-.28-.11-.32-.08-.91.28-1.06.03-.01.43-.07.47-.07.21.01.51.52.65.66.87.86,2.57,1.31,3.25-.03.85-1.68.1-3.93-.93-5.36-1.17-1.61-3.06-2.66-4.09-.25-.09.22-.39,1.22-.51,1.29-.38.23-.54-.33-.57-.59-.15-1.21.3-2.56,1.28-3.34.7-.56,1.82-.69,2.67-.48.64.16,1.2.54,1.7.96.03-.15.08-.31.1-.46.17-2.07-.38-4.32-1.21-6.21-.21-.48-.48-1.01-.79-1.43-.09.9-.31,1.72-1.05,2.29-.46.36-1.17.59-1.76.54-.21-.02-.39-.13-.61-.1.04,1.97-.37,4.13-1.68,5.66-.13.15-.76.79-.89.82s-.21.02-.27-.1c-.03-.08.14-1.45.17-1.66.11-.73.32-1.44.43-2.16.59-3.86-1.08-9.25-3.37-12.39-1.31-1.79-3.11-3.29-5.12-4.23.69,1.66-.1,3.49-1.55,4.43-.51.33-1.1.61-1.72.55l.94,1.68c.62,1.37.89,2.89.82,4.41,0,.19-.16,1.1-.1,1.19,1.59-.49,3.49-.2,5.04.35.64.23,2.25.92,2.7,1.36.28.27.16.3.22.61.02.13.18.25.07.42-.05.08-.38.13-.49.14-1.31.15-2.64.17-3.95.29-.13.01-.28.06-.42.07,4.41,2.85,6.71,8.81,4.78,13.82.12.16.32.28.41.47.14.29.05.63.08.95.18,2.3.37,4.38.1,6.69-.9,7.54-6,15.19-13.9,16.47-10.69,1.73-19.43-8.45-20.09-18.41-.57-.63-1.09-1.27-1.51-2-2.4-4.17-2.05-10.39,1.91-13.48-1.85-.96-3.63-2.21-4.73-4.01-.65-1.08-1.13-2.33-1.33-3.58-1.07.14-2.07-.87-2.66-1.66-.14-.19-.26-.47-.4-.63-.05-.06-.04-.07-.09,0-.15.18-.46.88-.57,1.14-1.72,3.83-2.46,8.63-.54,12.52.56,1.14,2.42,3.78,3.44,4.47.72.49,1.62.59,2.37.91s.7,1.13-.03,1.31c-1.52.36-3.82-.85-4.86-1.93-2.8-2.9-4.16-5.86-3.98-9.99.12-2.68,1.46-7.57,3.42-9.47.08-.08.29-.18.33-.23s.03-.15.09-.23c.16-.22.46-.15.64.02.41.37.93,1.31,1.36,1.79.17.19.4.42.59.58.07.06.71.59.76.54,0-.55-.08-1.09-.05-1.64.06-1.27.38-2.76.84-3.94.26-.67.89-2.02,1.59-2.27.17-.06.65,0,.81.09.26.13.6.83.81,1.09.47.57,1.72,1.41,2.47,1.4.36,0,1.11-1.2,1.3-1.53,1.39-2.46,2.13-5.47,1.05-8.2-.08-.21-.45-.81-.46-.95-.03-.5.48-.6.88-.54.88.12,2.27.5,3.16.74,1.79.49,4.34,1.5,5.39,3.11.1.15.4.79.5.82,1.17-.2,2.35-.03,3.51.2.14-.02.52-.66.6-.82.35-.69.77-2,.69-2.76-.05-.44-.44-.98-.34-1.36,0-.02.26-.21.28-.22.1-.03.26-.02.36.01.44.13,1.73.95,2.19,1.23,1.58.96,3.19,2.16,4.11,3.8.66,1.18.98,2.49,1.02,3.84ZM59.52,23.92c-.29-1.09-.65-2.17-1.21-3.16-1.13-1.99-2.99-3.42-4.84-4.7-.03,1.37-.48,2.82-1.37,3.88,2.3.89,4.6,2.09,6.2,4.01.43-.05.78.2,1.22-.03ZM46.58,19.82c.01-.08,0-.11-.05-.17-.12-.19-.66-.65-.86-.8-1.8-1.44-4.22-2.15-6.42-2.74,1.09,2.84.51,5.92-.94,8.51l-.97,1.4c.95-.09,1.99-.6,2.94-.43.51.09.53.63.3,1.01-.33.54-1.87,1.27-2.49,1.47-2.03.65-4.73-.15-5.8-2.07l-.45-1.11c-.62,1.47-.79,3.27-.71,4.86.2,4.08,2.34,6.87,6.17,8.19,1.78.61,3.43,1.1,5.34,1.06,1.04-.02,2.13-.24,3.17-.15.55.05,1.05.43.56.95-.2.22-.71.37-1,.47-.17.06-1.23.3-1.25.37,1.29,1.58,2.03,3.53,2.2,5.57.15,1.92.06,4.53-.45,6.38-.29,1.03-.54,1.64-1.3,2.41-1.74,1.76-4.02,2.69-6.5,2l-1.37-.54c1.43,1.66,3.65,2.43,5.75,2.84,6.65,1.32,12.71-.21,18.44-3.61,1.31-.78,2.55-1.68,3.7-2.68-1.91.52-3.9.12-5.62-.81-3.76-2.02-5.25-5.06-5.71-9.24-.06-.54-.04-1.09-.1-1.63-.59.18-1.18.37-1.8.47-1.02.17-2.66.23-3.62-.16-.24-.1-.55-.32-.66-.56-.15-.31,0-.78.33-.94.58-.28,2.15-.37,2.87-.5,2.64-.5,6.56-2.3,7.55-4.99,1.12-3.04,1.18-6-.73-8.72-1.69-2.41-5.82-4.85-8.76-5.11-.45-.04-.95-.04-1.39,0l.53.77c1.21,2.8-1.04,6.66-3.99,7.22-.48.09-1.69.25-1.71-.46.24-.1.5-.03.75-.06,1.87-.24,3.34-1.73,3.96-3.46.38-1.05.68-2.62-.2-3.51-.3-.31-.74-.29-.94-.66.33-.37.71-.76,1.22-.86ZM67.19,34.03c-2.05-.64-4.15-1.27-6.32-1.13-.08,0-.32.01-.37.09.01.27-.26.85-.24,1.06.02.2.55.15.7.18l1.17.32c1.59-.59,3.23-.61,4.89-.48.05,0,.18.04.17-.05ZM79.59,49.22c.87.07,1.74-.41,2.27-1.07.07-.08.43-.66.45-.72.04-.15,0-.36.02-.52.08-.57.32-1.17.29-1.76-.02-.35-.62-2.61-.9-2.61-.18.3-.29.64-.47.94-.06.09-.31.37-.31.4-.03.2.11.73.13.98.07,1.28-.12,2.45-.81,3.54l-.65.83ZM60.64,42.63c-1.67-.31-2.58.93-2.96,2.38-.3,1.15-.37,1.97.19,3.05.72,1.41,2.32,2.2,3.77,1.29,1.28-.81,1.49-2.61,1.3-4-.22.12-.4.3-.66.34-.2.03-.67-.04-.86-.1-.38-.12-.9-.7-.96-1.09-.09-.62.11-1.27.19-1.87ZM42.33,45.12l-.95-.05c-2.28.19-2.72,3.41-2.17,5.16.5,1.58,2.39,2.78,3.95,1.85,1.22-.73,1.55-2.89,1.17-4.17-.33-.02-.59.28-.94.23-.13-.02-.62-.23-.72-.31-.24-.21-.67-1.28-.69-1.61-.03-.45.18-.71.34-1.1ZM57.16,67.81c-.06.06-.24.13-.33.09-1.42-.76-2.82-1.43-4.46-1.5-2.43-.1-5.58,1.15-7.49,2.62-.17.13-.7.56-.81.7-.04.05-.09.09-.07.17.05.16,1.96,1.28,2.24,1.42,6.77,3.5,14.08,1.11,18.35-4.89.12-.17.87-1.25.84-1.35-.1-.13-.29-.1-.44-.15-1.83-.6-2.72-.99-4.71-.95s-3.97.32-5.59,1.49c0,.06.7.37.83.44.45.27,1.38.99,1.66,1.42.1.16.15.34,0,.49Z"></path><path class="cls-1" d="M75.29,42.73c.85.76,1.41,1.83,1.27,3-.03.22-.17.4-.39.32.07-.23.04-.41-.02-.64-.23-.87-.83-1.73-1.39-2.42h-.06c-.55.25-.88.64-1.12,1.19-.68,0-.34-1.05-.12-1.42.62-1.06,2.25-1.61,3.4-1.28.33.1.73.34.39.68l-1.95.56Z"></path><path d="M46.58,19.82c-.51.1-.88.49-1.22.86.2.37.64.35.94.66.88.89.58,2.45.2,3.51-.62,1.73-2.08,3.22-3.96,3.46-.25.03-.51-.04-.75.06.01.71,1.22.55,1.71.46,2.95-.56,5.2-4.42,3.99-7.22l-.53-.77c.45-.04.94-.04,1.39,0,2.93.27,7.07,2.7,8.76,5.11,1.91,2.72,1.85,5.68.73,8.72-.99,2.69-4.91,4.5-7.55,4.99-.72.14-2.29.22-2.87.5-.33.16-.49.63-.33.94.12.24.42.46.66.56.96.39,2.61.33,3.62.16.61-.1,1.2-.3,1.8-.47.07.54.05,1.09.1,1.63.45,4.18,1.95,7.21,5.71,9.24,1.72.93,3.7,1.33,5.62.81-1.14,1-2.39,1.9-3.7,2.68-5.72,3.4-11.79,4.93-18.44,3.61-2.1-.42-4.32-1.19-5.75-2.84l1.37.54c2.47.69,4.76-.24,6.5-2,.76-.77,1.02-1.38,1.3-2.41.52-1.85.61-4.46.45-6.38-.16-2.04-.9-3.99-2.2-5.57.02-.07,1.07-.31,1.25-.37.29-.1.79-.25,1-.47.49-.52,0-.91-.56-.95-1.04-.09-2.13.13-3.17.15-1.91.04-3.56-.45-5.34-1.06-3.83-1.32-5.96-4.11-6.17-8.19-.08-1.59.09-3.39.71-4.86l.45,1.11c1.06,1.92,3.76,2.71,5.8,2.07.62-.2,2.15-.93,2.49-1.47.23-.38.21-.92-.3-1.01-.96-.17-2,.34-2.94.43l.97-1.4c1.45-2.59,2.03-5.67.94-8.51,2.2.58,4.62,1.3,6.42,2.74.2.16.74.62.86.8.04.06.06.1.05.17ZM49.43,54.77c-2.17-2.19-.22-5.11,2.42-3.66.9.49,1.59,1.79,1.2,2.8-.06.16-.28.36-.31.53-.09.55.56,1,1.04.7.28-.18.58-1.2.61-1.54.2-2.36-2.11-4.55-4.46-4.16s-3.16,3.19-1.72,5.01c.24.3,1.39,1.37,1.78,1.11.17-.33-.37-.57-.57-.78Z"></path><path d="M57.16,67.81c.15-.15.11-.33,0-.49-.27-.43-1.2-1.15-1.66-1.42-.12-.07-.82-.38-.83-.44,1.62-1.17,3.63-1.45,5.59-1.49s2.89.36,4.71.95c.15.05.34.02.44.15.03.1-.71,1.18-.84,1.35-4.27,6-11.58,8.39-18.35,4.89-.28-.15-2.2-1.27-2.24-1.42-.02-.08.03-.11.07-.17.11-.14.64-.57.81-.7,1.91-1.47,5.06-2.72,7.49-2.62,1.65.07,3.04.74,4.46,1.5.08.03.27-.03.33-.09Z"></path><path d="M42.33,45.12c-.17.39-.37.65-.34,1.1.02.33.45,1.4.69,1.61.1.08.59.29.72.31.35.05.6-.25.94-.23.37,1.27.05,3.44-1.17,4.17-1.56.93-3.46-.27-3.95-1.85-.55-1.75-.11-4.97,2.17-5.16l.95.05Z"></path><path d="M60.64,42.63c-.08.61-.27,1.26-.19,1.87.05.4.58.97.96,1.09.19.06.66.13.86.1.27-.04.44-.21.66-.34.18,1.38-.02,3.19-1.3,4-1.44.91-3.04.11-3.77-1.29-.56-1.08-.49-1.91-.19-3.05.38-1.45,1.29-2.69,2.96-2.38Z"></path><path d="M59.52,23.92c-.44.23-.79-.02-1.22.03-1.6-1.92-3.9-3.12-6.2-4.01.89-1.06,1.34-2.51,1.37-3.88,1.85,1.28,3.71,2.71,4.84,4.7.56.99.92,2.07,1.21,3.16Z"></path><path d="M79.59,49.22l.65-.83c.69-1.09.88-2.26.81-3.54-.01-.25-.16-.78-.13-.98,0-.03.26-.3.31-.4.18-.3.29-.64.47-.94.28,0,.89,2.26.9,2.61.03.59-.2,1.19-.29,1.76-.02.17.03.37-.02.52-.02.06-.39.64-.45.72-.53.66-1.4,1.15-2.27,1.07Z"></path><path d="M67.19,34.03c.01.08-.12.05-.17.05-1.66-.13-3.3-.11-4.89.48l-1.17-.32c-.15-.03-.68.02-.7-.18-.02-.22.25-.79.24-1.06.04-.07.28-.08.37-.09,2.18-.15,4.28.48,6.32,1.13Z"></path><path class="cls-1" d="M49.43,54.77c.21.21.75.44.57.78-.39.27-1.54-.8-1.78-1.11-1.44-1.82-.68-4.61,1.72-5.01s4.66,1.8,4.46,4.16c-.03.34-.33,1.36-.61,1.54-.48.3-1.13-.15-1.04-.7.03-.16.24-.36.31-.53.39-1.01-.3-2.31-1.2-2.8-2.64-1.45-4.59,1.47-2.42,3.66Z"></path></svg></svg></g></g></svg></g><g id="dark-icon"><svg xmlns="http://www.w3.org/2000/svg" version="1.1" xmlns:xlink="http://www.w3.org/1999/xlink" width="1000" height="1000"><g clip-path="url(#SvgjsClipPath1123)"><rect width="1000" height="1000" fill="#000000"></rect><g transform="matrix(10,0,0,10,0,0)"><svg xmlns="http://www.w3.org/2000/svg" version="1.1" xmlns:xlink="http://www.w3.org/1999/xlink" width="100" height="100"><svg id="Capa_12" xmlns="http://www.w3.org/2000/svg" viewBox="0 0 100 100"><defs><style>.cls-1{fill:#fff;}</style><clipPath id="SvgjsClipPath1123"><rect width="1000" height="1000" x="0" y="0" rx="500" ry="500"></rect></clipPath></defs><path d="M100,0v100H0V0h100ZM60.16,23.44c-.04-1.35-.35-2.66-1.02-3.84-.92-1.64-2.54-2.83-4.11-3.8-.46-.28-1.75-1.1-2.19-1.23-.1-.03-.26-.04-.36-.01-.02,0-.27.2-.28.22-.11.38.29.93.34,1.36.08.76-.35,2.08-.69,2.76-.08.16-.45.8-.6.82-1.15-.23-2.34-.41-3.51-.2-.1-.02-.4-.67-.5-.82-1.05-1.6-3.6-2.62-5.39-3.11-.89-.24-2.28-.62-3.16-.74-.39-.05-.91.04-.88.54,0,.14.38.73.46.95,1.08,2.73.34,5.74-1.05,8.2-.19.33-.94,1.52-1.3,1.53-.74.02-2-.83-2.47-1.4-.21-.26-.56-.96-.81-1.09-.16-.08-.64-.15-.81-.09-.7.25-1.33,1.6-1.59,2.27-.46,1.18-.78,2.68-.84,3.94-.03.55.05,1.09.05,1.64-.05.05-.68-.47-.76-.54-.19-.17-.42-.4-.59-.58-.43-.48-.95-1.42-1.36-1.79-.18-.16-.48-.24-.64-.02-.05.07-.05.17-.09.23s-.25.16-.33.23c-1.95,1.9-3.3,6.8-3.42,9.47-.19,4.12,1.18,7.09,3.98,9.99,1.05,1.08,3.34,2.29,4.86,1.93.73-.17.77-.99.03-1.31s-1.65-.42-2.37-.91c-1.02-.69-2.88-3.33-3.44-4.47-1.92-3.89-1.19-8.69.54-12.52.11-.25.42-.96.57-1.14.05-.07.04-.06.09,0,.14.15.26.44.4.63.59.79,1.58,1.81,2.66,1.66.19,1.25.67,2.5,1.33,3.58,1.1,1.81,2.88,3.06,4.73,4.01-3.96,3.1-4.31,9.32-1.91,13.48.42.74.94,1.38,1.51,2,.66,9.96,9.4,20.15,20.09,18.41,7.9-1.28,13-8.93,13.9-16.47.28-2.31.08-4.39-.1-6.69-.02-.32.06-.65-.08-.95-.09-.19-.29-.31-.41-.47,1.93-5.01-.37-10.97-4.78-13.82.14-.02.28-.06.42-.07,1.31-.13,2.64-.15,3.95-.29.11-.01.44-.06.49-.14.11-.17-.05-.29-.07-.42-.06-.3.06-.33-.22-.61-.45-.44-2.06-1.13-2.7-1.36-1.55-.56-3.45-.85-5.04-.35-.06-.09.09-1,.1-1.19.07-1.51-.21-3.03-.82-4.41l-.94-1.68c.62.06,1.22-.21,1.72-.55,1.44-.94,2.24-2.77,1.55-4.43,2.01.94,3.81,2.44,5.12,4.23,2.29,3.14,3.96,8.52,3.37,12.39-.11.72-.32,1.44-.43,2.16-.03.21-.2,1.59-.17,1.66.06.13.15.13.27.1s.76-.67.89-.82c1.32-1.53,1.73-3.69,1.68-5.66.22-.03.39.08.61.1.59.05,1.3-.18,1.76-.54.74-.58.96-1.39,1.05-2.29.31.42.58.95.79,1.43.83,1.89,1.38,4.14,1.21,6.21-.01.16-.07.31-.1.46-.5-.42-1.05-.8-1.7-.96-.85-.21-1.97-.08-2.67.48-.98.78-1.43,2.12-1.28,3.34.03.26.2.82.57.59.12-.07.42-1.08.51-1.29,1.03-2.41,2.93-1.37,4.09.25,1.04,1.43,1.78,3.69.93,5.36-.68,1.34-2.37.89-3.25.03-.14-.14-.44-.65-.65-.66-.04,0-.43.06-.47.07-.36.16-.39.74-.28,1.06.05.13.22.18.31.28.95,1.04,1.84,1.99,3.42,1.91.25-.01.6-.12.83-.1.19.02.45.18.66.22,1.11.25,2.1-.17,2.91-.91.06-.05.22-.36.32-.29.73,1.58.43,3.27-.64,4.61-.13.17-.3.38-.46.51-.21.17-1.21.57-.68.92.3.21.86.06,1.17-.08.75-.34,1.17-1.11,1.9-1.47.35.87.35,2.07.15,2.98-.56,2.56-2.54,3.43-4.8,4.13-.47.15-.95.3-1.43.4.37-2.95.27-6.05-.8-8.85-.09-.24-.41-1.06-.55-1.21-.08-.09-.62-.35-.73-.35l-.71.32-.23.77c2.16,4.49,2.38,9.24.52,13.87-4.29,10.64-16.97,16.48-28.03,14.87-4.9-.71-8.12-2.54-12.06-5.32-2.88-2.04-7.39-6.15-7.65-9.88-.03-.37-.04-1.01.07-1.34.54-1.57,1.87-3.66,2.82-5.05.66-.97,1.61-2.01,2.18-3,.13-.22.36-.57.2-.82-.25-.39-.81.12-1.04.31-2.28,1.87-4.76,5.3-5.98,7.99-.26.57-.4.79-.35,1.46.19,2.8,3.16,6.96,5.23,8.79,3.52,3.1,8.03,5.89,12.56,7.17,13.47,3.79,30.45-3.54,34.15-17.64.06-.23.2-1.12.29-1.22.11-.11,2.21-.38,2.57-.46,2.3-.47,4.35-1.6,5.06-3.98.46-1.54.23-3.19-.57-4.58-.08-.13-.46-.64-.48-.69-.06-.2.06-1.07.04-1.41-.09-1.14-.79-2.22-1.6-2.99.23-.57.83-1.05.95-1.68.18-.98-.28-2.11-.77-2.95-.18-.31-1.19-1.94-1.62-1.25l-.42,1.53c0,.05-.07.03-.1,0-.05-.05-.21-.66-.27-.81-.19-.47-.46-1.03-.74-1.46-.12-.18-.6-.72-.63-.83-.03-.1-.02-.16,0-.26.05-.37.29-.9.37-1.3.51-2.54-.27-5.16-1.82-7.19-.19-.24-1.16-1.42-1.37-1.46-.14-.03-.26.02-.36.12-.02.78.03,1.61-.36,2.31-.48.85-1.57,1.39-2.51,1.02-.37-5.43-2.73-11.15-7.64-13.92-1.11-.63-3.32-1.5-4.6-1.31-.36.06-.61.44-.51.79.04.15.37.33.47.46.92,1.19.7,2.79-.26,3.88-.04.05-.32.35-.37.29ZM75.29,42.73l1.95-.56c.34-.34-.05-.59-.39-.68-1.15-.33-2.78.23-3.4,1.28-.22.37-.55,1.43.12,1.42.24-.56.57-.94,1.12-1.21h.06c.57.7,1.16,1.56,1.39,2.43.06.23.09.4.02.64.23.09.37-.1.39-.32.14-1.18-.42-2.24-1.27-3Z"></path><path class="cls-1" d="M60.16,23.44c.05.06.32-.25.37-.29.96-1.09,1.18-2.68.26-3.88-.1-.12-.43-.31-.47-.46-.11-.36.14-.74.51-.79,1.27-.2,3.48.68,4.6,1.31,4.91,2.76,7.27,8.49,7.64,13.92.94.37,2.03-.17,2.51-1.02.39-.7.35-1.53.36-2.31.1-.1.21-.15.36-.12.21.04,1.19,1.22,1.37,1.46,1.55,2.02,2.34,4.65,1.82,7.19-.08.39-.32.93-.37,1.3-.01.1-.02.16,0,.26.04.11.52.65.63.83.28.43.54.99.74,1.46.06.14.22.76.27.81.03.03.09.05.1,0l.42-1.53c.44-.68,1.44.94,1.62,1.25.48.83.95,1.97.77,2.95-.11.62-.71,1.11-.95,1.68.81.76,1.52,1.85,1.6,2.99.03.33-.1,1.21-.04,1.41.01.05.4.56.48.69.8,1.39,1.03,3.04.57,4.58-.71,2.38-2.75,3.51-5.06,3.98-.36.07-2.47.34-2.57.46-.1.1-.23,1-.29,1.22-3.7,14.1-20.67,21.43-34.15,17.64-4.53-1.27-9.05-4.07-12.56-7.17-2.07-1.82-5.04-5.99-5.23-8.79-.04-.67.09-.89.35-1.46,1.21-2.69,3.69-6.12,5.98-7.99.23-.19.79-.7,1.04-.31.16.24-.07.59-.2.82-.56.99-1.51,2.03-2.18,3-.95,1.39-2.27,3.47-2.82,5.05-.11.33-.1.98-.07,1.34.26,3.73,4.77,7.84,7.65,9.88,3.94,2.79,7.16,4.61,12.06,5.32,11.07,1.61,23.74-4.23,28.03-14.87,1.87-4.63,1.64-9.37-.52-13.87l.23-.77.71-.32c.11,0,.65.26.73.35.14.15.46.97.55,1.21,1.07,2.8,1.17,5.9.8,8.85.47-.11.96-.26,1.43-.4,2.26-.71,4.24-1.57,4.8-4.13.2-.91.21-2.11-.15-2.98-.73.36-1.14,1.14-1.9,1.47-.31.14-.87.29-1.17.08-.53-.36.46-.75.68-.92.17-.13.33-.34.46-.51,1.06-1.34,1.36-3.03.64-4.61-.09-.07-.26.24-.32.29-.81.74-1.8,1.16-2.91.91-.2-.05-.47-.21-.66-.22-.23-.02-.59.09-.83.1-1.57.08-2.46-.86-3.42-1.91-.09-.1-.26-.14-.31-.28-.11-.32-.08-.91.28-1.06.03-.01.43-.07.47-.07.21.01.51.52.65.66.87.86,2.57,1.31,3.25-.03.85-1.68.1-3.93-.93-5.36-1.17-1.61-3.06-2.66-4.09-.25-.09.22-.39,1.22-.51,1.29-.38.23-.54-.33-.57-.59-.15-1.21.3-2.56,1.28-3.34.7-.56,1.82-.69,2.67-.48.64.16,1.2.54,1.7.96.03-.15.08-.31.1-.46.17-2.07-.38-4.32-1.21-6.21-.21-.48-.48-1.01-.79-1.43-.09.9-.31,1.72-1.05,2.29-.46.36-1.17.59-1.76.54-.21-.02-.39-.13-.61-.1.04,1.97-.37,4.13-1.68,5.66-.13.15-.76.79-.89.82s-.21.02-.27-.1c-.03-.08.14-1.45.17-1.66.11-.73.32-1.44.43-2.16.59-3.86-1.08-9.25-3.37-12.39-1.31-1.79-3.11-3.29-5.12-4.23.69,1.66-.1,3.49-1.55,4.43-.51.33-1.1.61-1.72.55l.94,1.68c.62,1.37.89,2.89.82,4.41,0,.19-.16,1.1-.1,1.19,1.59-.49,3.49-.2,5.04.35.64.23,2.25.92,2.7,1.36.28.27.16.3.22.61.02.13.18.25.07.42-.05.08-.38.13-.49.14-1.31.15-2.64.17-3.95.29-.13.01-.28.06-.42.07,4.41,2.85,6.71,8.81,4.78,13.82.12.16.32.28.41.47.14.29.05.63.08.95.18,2.3.37,4.38.1,6.69-.9,7.54-6,15.19-13.9,16.47-10.69,1.73-19.43-8.45-20.09-18.41-.57-.63-1.09-1.27-1.51-2-2.4-4.17-2.05-10.39,1.91-13.48-1.85-.96-3.63-2.21-4.73-4.01-.65-1.08-1.13-2.33-1.33-3.58-1.07.14-2.07-.87-2.66-1.66-.14-.19-.26-.47-.4-.63-.05-.06-.04-.07-.09,0-.15.18-.46.88-.57,1.14-1.72,3.83-2.46,8.63-.54,12.52.56,1.14,2.42,3.78,3.44,4.47.72.49,1.62.59,2.37.91s.7,1.13-.03,1.31c-1.52.36-3.82-.85-4.86-1.93-2.8-2.9-4.16-5.86-3.98-9.99.12-2.68,1.46-7.57,3.42-9.47.08-.08.29-.18.33-.23s.03-.15.09-.23c.16-.22.46-.15.64.02.41.37.93,1.31,1.36,1.79.17.19.4.42.59.58.07.06.71.59.76.54,0-.55-.08-1.09-.05-1.64.06-1.27.38-2.76.84-3.94.26-.67.89-2.02,1.59-2.27.17-.06.65,0,.81.09.26.13.6.83.81,1.09.47.57,1.72,1.41,2.47,1.4.36,0,1.11-1.2,1.3-1.53,1.39-2.46,2.13-5.47,1.05-8.2-.08-.21-.45-.81-.46-.95-.03-.5.48-.6.88-.54.88.12,2.27.5,3.16.74,1.79.49,4.34,1.5,5.39,3.11.1.15.4.79.5.82,1.17-.2,2.35-.03,3.51.2.14-.02.52-.66.6-.82.35-.69.77-2,.69-2.76-.05-.44-.44-.98-.34-1.36,0-.02.26-.21.28-.22.1-.03.26-.02.36.01.44.13,1.73.95,2.19,1.23,1.58.96,3.19,2.16,4.11,3.8.66,1.18.98,2.49,1.02,3.84ZM59.52,23.92c-.29-1.09-.65-2.17-1.21-3.16-1.13-1.99-2.99-3.42-4.84-4.7-.03,1.37-.48,2.82-1.37,3.88,2.3.89,4.6,2.09,6.2,4.01.43-.05.78.2,1.22-.03ZM46.58,19.82c.01-.08,0-.11-.05-.17-.12-.19-.66-.65-.86-.8-1.8-1.44-4.22-2.15-6.42-2.74,1.09,2.84.51,5.92-.94,8.51l-.97,1.4c.95-.09,1.99-.6,2.94-.43.51.09.53.63.3,1.01-.33.54-1.87,1.27-2.49,1.47-2.03.65-4.73-.15-5.8-2.07l-.45-1.11c-.62,1.47-.79,3.27-.71,4.86.2,4.08,2.34,6.87,6.17,8.19,1.78.61,3.43,1.1,5.34,1.06,1.04-.02,2.13-.24,3.17-.15.55.05,1.05.43.56.95-.2.22-.71.37-1,.47-.17.06-1.23.3-1.25.37,1.29,1.58,2.03,3.53,2.2,5.57.15,1.92.06,4.53-.45,6.38-.29,1.03-.54,1.64-1.3,2.41-1.74,1.76-4.02,2.69-6.5,2l-1.37-.54c1.43,1.66,3.65,2.43,5.75,2.84,6.65,1.32,12.71-.21,18.44-3.61,1.31-.78,2.55-1.68,3.7-2.68-1.91.52-3.9.12-5.62-.81-3.76-2.02-5.25-5.06-5.71-9.24-.06-.54-.04-1.09-.1-1.63-.59.18-1.18.37-1.8.47-1.02.17-2.66.23-3.62-.16-.24-.1-.55-.32-.66-.56-.15-.31,0-.78.33-.94.58-.28,2.15-.37,2.87-.5,2.64-.5,6.56-2.3,7.55-4.99,1.12-3.04,1.18-6-.73-8.72-1.69-2.41-5.82-4.85-8.76-5.11-.45-.04-.95-.04-1.39,0l.53.77c1.21,2.8-1.04,6.66-3.99,7.22-.48.09-1.69.25-1.71-.46.24-.1.5-.03.75-.06,1.87-.24,3.34-1.73,3.96-3.46.38-1.05.68-2.62-.2-3.51-.3-.31-.74-.29-.94-.66.33-.37.71-.76,1.22-.86ZM67.19,34.03c-2.05-.64-4.15-1.27-6.32-1.13-.08,0-.32.01-.37.09.01.27-.26.85-.24,1.06.02.2.55.15.7.18l1.17.32c1.59-.59,3.23-.61,4.89-.48.05,0,.18.04.17-.05ZM79.59,49.22c.87.07,1.74-.41,2.27-1.07.07-.08.43-.66.45-.72.04-.15,0-.36.02-.52.08-.57.32-1.17.29-1.76-.02-.35-.62-2.61-.9-2.61-.18.3-.29.64-.47.94-.06.09-.31.37-.31.4-.03.2.11.73.13.98.07,1.28-.12,2.45-.81,3.54l-.65.83ZM60.64,42.63c-1.67-.31-2.58.93-2.96,2.38-.3,1.15-.37,1.97.19,3.05.72,1.41,2.32,2.2,3.77,1.29,1.28-.81,1.49-2.61,1.3-4-.22.12-.4.3-.66.34-.2.03-.67-.04-.86-.1-.38-.12-.9-.7-.96-1.09-.09-.62.11-1.27.19-1.87ZM42.33,45.12l-.95-.05c-2.28.19-2.72,3.41-2.17,5.16.5,1.58,2.39,2.78,3.95,1.85,1.22-.73,1.55-2.89,1.17-4.17-.33-.02-.59.28-.94.23-.13-.02-.62-.23-.72-.31-.24-.21-.67-1.28-.69-1.61-.03-.45.18-.71.34-1.1ZM57.16,67.81c-.06.06-.24.13-.33.09-1.42-.76-2.82-1.43-4.46-1.5-2.43-.1-5.58,1.15-7.49,2.62-.17.13-.7.56-.81.7-.04.05-.09.09-.07.17.05.16,1.96,1.28,2.24,1.42,6.77,3.5,14.08,1.11,18.35-4.89.12-.17.87-1.25.84-1.35-.1-.13-.29-.1-.44-.15-1.83-.6-2.72-.99-4.71-.95s-3.97.32-5.59,1.49c0,.06.7.37.83.44.45.27,1.38.99,1.66,1.42.1.16.15.34,0,.49Z"></path><path class="cls-1" d="M75.29,42.73c.85.76,1.41,1.83,1.27,3-.03.22-.17.4-.39.32.07-.23.04-.41-.02-.64-.23-.87-.83-1.73-1.39-2.42h-.06c-.55.25-.88.64-1.12,1.19-.68,0-.34-1.05-.12-1.42.62-1.06,2.25-1.61,3.4-1.28.33.1.73.34.39.68l-1.95.56Z"></path><path d="M46.58,19.82c-.51.1-.88.49-1.22.86.2.37.64.35.94.66.88.89.58,2.45.2,3.51-.62,1.73-2.08,3.22-3.96,3.46-.25.03-.51-.04-.75.06.01.71,1.22.55,1.71.46,2.95-.56,5.2-4.42,3.99-7.22l-.53-.77c.45-.04.94-.04,1.39,0,2.93.27,7.07,2.7,8.76,5.11,1.91,2.72,1.85,5.68.73,8.72-.99,2.69-4.91,4.5-7.55,4.99-.72.14-2.29.22-2.87.5-.33.16-.49.63-.33.94.12.24.42.46.66.56.96.39,2.61.33,3.62.16.61-.1,1.2-.3,1.8-.47.07.54.05,1.09.1,1.63.45,4.18,1.95,7.21,5.71,9.24,1.72.93,3.7,1.33,5.62.81-1.14,1-2.39,1.9-3.7,2.68-5.72,3.4-11.79,4.93-18.44,3.61-2.1-.42-4.32-1.19-5.75-2.84l1.37.54c2.47.69,4.76-.24,6.5-2,.76-.77,1.02-1.38,1.3-2.41.52-1.85.61-4.46.45-6.38-.16-2.04-.9-3.99-2.2-5.57.02-.07,1.07-.31,1.25-.37.29-.1.79-.25,1-.47.49-.52,0-.91-.56-.95-1.04-.09-2.13.13-3.17.15-1.91.04-3.56-.45-5.34-1.06-3.83-1.32-5.96-4.11-6.17-8.19-.08-1.59.09-3.39.71-4.86l.45,1.11c1.06,1.92,3.76,2.71,5.8,2.07.62-.2,2.15-.93,2.49-1.47.23-.38.21-.92-.3-1.01-.96-.17-2,.34-2.94.43l.97-1.4c1.45-2.59,2.03-5.67.94-8.51,2.2.58,4.62,1.3,6.42,2.74.2.16.74.62.86.8.04.06.06.1.05.17ZM49.43,54.77c-2.17-2.19-.22-5.11,2.42-3.66.9.49,1.59,1.79,1.2,2.8-.06.16-.28.36-.31.53-.09.55.56,1,1.04.7.28-.18.58-1.2.61-1.54.2-2.36-2.11-4.55-4.46-4.16s-3.16,3.19-1.72,5.01c.24.3,1.39,1.37,1.78,1.11.17-.33-.37-.57-.57-.78Z"></path><path d="M57.16,67.81c.15-.15.11-.33,0-.49-.27-.43-1.2-1.15-1.66-1.42-.12-.07-.82-.38-.83-.44,1.62-1.17,3.63-1.45,5.59-1.49s2.89.36,4.71.95c.15.05.34.02.44.15.03.1-.71,1.18-.84,1.35-4.27,6-11.58,8.39-18.35,4.89-.28-.15-2.2-1.27-2.24-1.42-.02-.08.03-.11.07-.17.11-.14.64-.57.81-.7,1.91-1.47,5.06-2.72,7.49-2.62,1.65.07,3.04.74,4.46,1.5.08.03.27-.03.33-.09Z"></path><path d="M42.33,45.12c-.17.39-.37.65-.34,1.1.02.33.45,1.4.69,1.61.1.08.59.29.72.31.35.05.6-.25.94-.23.37,1.27.05,3.44-1.17,4.17-1.56.93-3.46-.27-3.95-1.85-.55-1.75-.11-4.97,2.17-5.16l.95.05Z"></path><path d="M60.64,42.63c-.08.61-.27,1.26-.19,1.87.05.4.58.97.96,1.09.19.06.66.13.86.1.27-.04.44-.21.66-.34.18,1.38-.02,3.19-1.3,4-1.44.91-3.04.11-3.77-1.29-.56-1.08-.49-1.91-.19-3.05.38-1.45,1.29-2.69,2.96-2.38Z"></path><path d="M59.52,23.92c-.44.23-.79-.02-1.22.03-1.6-1.92-3.9-3.12-6.2-4.01.89-1.06,1.34-2.51,1.37-3.88,1.85,1.28,3.71,2.71,4.84,4.7.56.99.92,2.07,1.21,3.16Z"></path><path d="M79.59,49.22l.65-.83c.69-1.09.88-2.26.81-3.54-.01-.25-.16-.78-.13-.98,0-.03.26-.3.31-.4.18-.3.29-.64.47-.94.28,0,.89,2.26.9,2.61.03.59-.2,1.19-.29,1.76-.02.17.03.37-.02.52-.02.06-.39.64-.45.72-.53.66-1.4,1.15-2.27,1.07Z"></path><path d="M67.19,34.03c.01.08-.12.05-.17.05-1.66-.13-3.3-.11-4.89.48l-1.17-.32c-.15-.03-.68.02-.7-.18-.02-.22.25-.79.24-1.06.04-.07.28-.08.37-.09,2.18-.15,4.28.48,6.32,1.13Z"></path><path class="cls-1" d="M49.43,54.77c.21.21.75.44.57.78-.39.27-1.54-.8-1.78-1.11-1.44-1.82-.68-4.61,1.72-5.01s4.66,1.8,4.46,4.16c-.03.34-.33,1.36-.61,1.54-.48.3-1.13-.15-1.04-.7.03-.16.24-.36.31-.53.39-1.01-.3-2.31-1.2-2.8-2.64-1.45-4.59,1.47-2.42,3.66Z"></path></svg></svg></g></g></svg></g></svg>