<?xml version="1.0" encoding="UTF-8"?><svg id="Capa_13" xmlns="http://www.w3.org/2000/svg" viewBox="0 0 100 100"><defs><style>.cls-1{fill:#fff;}</style></defs><path class="cls-1" d="M53.42,33.15c1.89-.91,3.69-2.03,5.45-3.17.82-.54,1.64-1.08,2.43-1.67.45-.34,1.74-1.25,2.04-1.63.13-.17.43-1.05.42-1.26-.03-.59-.81-.72-1.22-.92-.56-.26-1.28-.61-1.1-1.33.38-1.56,1.85-1.42,2.94-.65.34.23,1.01.99,1.37.97.66-.05,1.2-1.11,1.62-1.56.57-.61,1.39-1.29,2.13-.46.24.27.27.41.24.78-.05.64-.47.86-.83,1.32-.31.41-.88,1.17-1.05,1.64-.03.07-.05.13-.02.21.03.1.12.08.2.07.59-.08,1.91-.78,2.4-.72.77.09,1.06,1.2.52,1.73-.16.16-.58.27-.8.37-.73.35-1.48.79-2.23,1.09-.5.2-1.04.32-1.54.51-.72.28-1.26.66-1.89,1.08-4.56,3.05-8.86,6.68-11.7,11.45.67,2.6.83,5.41,1.64,7.96,1.13,3.56,4.02,6.31,6.39,9.09,1.43,1.68,4.65,4.94,3.55,7.31-1.32,2.85-6.83.14-8.62-1.07-2.15-1.46-4.18-3.17-6.32-4.67-.81-.57-1.63-1.15-2.51-1.62-.15.79-.32,1.58-.43,2.38-.33,2.36-.37,4.66.16,7,1,4.36,4.41,9.99,9.65,8.97,2.32-.45,4.31-1.15,6.75-1.26,4.04-.18,8.81,1.09,11.03,4.74,2.62,4.3-1.22,7.82.93,11.86.13.23.69,1.17.96,1.15.42-.04.13-.76.07-1.05-.14-.64-.34-1.26-.52-1.88.15-.58.76-.07.97.2.55.72.98,1.62,1.55,2.35.88,1.14,2.31,2.29,3.54,3.05.26.16,1.14.58,1.27.74.28.35-.13.71-.45.82-.86.29-2.98.21-3.91.08-2.84-.4-5.88-1.88-6.99-4.68-.16-.41-.61-1.62.19-1.6.23,0,.67.79.85,1,.45.52,1.2,1.11,1.84,1.38.21.09.92.38.8-.11,0-.04-.54-.35-.66-.47-1.47-1.39-1.6-3.01-1.49-4.96s1.05-3.96.51-5.88c-.77-2.76-3.38-4.4-6.04-5-3.36-.76-6.57.41-9.78,1.18s-5.28.53-7.76-1.66c-4.64-4.08-5.72-11.76-4.66-17.58-1.03.49-1.96,1.16-2.9,1.82-2.14,1.5-4.17,3.22-6.32,4.67-1.15.78-2.14,1.27-3.46,1.72-1.39.47-3.57,1.15-4.76-.07-2.17-2.23,1.73-6.21,3.15-7.89,2.36-2.78,5.26-5.53,6.39-9.09.81-2.54.95-5.34,1.65-7.92-2.79-4.8-7.14-8.44-11.7-11.49-.38-.26-.87-.62-1.27-.83-.73-.38-1.67-.55-2.44-.88-.42-.18-.81-.44-1.22-.64-.32-.16-1.34-.53-1.53-.71-.53-.52-.27-1.58.48-1.72.46-.09,1.86.63,2.44.71.08.01.17.03.2-.07.02-.08,0-.14-.02-.21-.17-.46-.73-1.23-1.05-1.64-.44-.58-.94-.8-.83-1.66.06-.52.71-.85,1.2-.8.36.03.92.56,1.17.83.42.45.96,1.51,1.62,1.56.36.03,1.04-.73,1.37-.97.68-.48,1.62-.84,2.38-.29.32.23.67.93.6,1.31-.17.91-1.96,1-2.28,1.63-.2.4.17,1.13.34,1.52,1.74,1.5,3.63,2.78,5.57,4s3.74,2.3,5.76,3.15c-1.5-1.14-2.76-2.51-3.52-4.26-1.31-3.01-1.14-6.28.48-9.14-.49-1.74-.77-3.83-.31-5.6.37-1.43.81-.36,1.35.18.71.71,1.68,1.32,2.57,1.78.44-.18.85-.43,1.29-.61,4.92-2.02,10.5-.12,13.04,4.53,2.05,3.74,1.51,8.29-1.33,11.46ZM40.61,19.15c-1.18.15-2.14,2.18-2.84,3.02-.28.6.65,2.57,1.01,3.14.65,1.03,1.12,1.24,2.36,1.16,1.04-.07,1.89-.49,2.73-1.08.48-.34,1.79-1.4,1.75-2.02,0-.12-.43-.74-.53-.89-.86-1.28-2.73-3.55-4.47-3.32ZM51.11,19.89c-1.18.14-2.27,1.4-2.91,2.32-.13.18-.56.78-.55.96.07.77,2.14,2.07,2.87,2.21,1.62.31,2.13-.18,2.74-1.58.2-.47.36-.99.4-1.5-.6-.81-1.35-2.55-2.55-2.41ZM52.48,30.16c.06-.06.06-.23.03-.32-.01-.04-.34-.37-.4-.43-2.5-2.5-6.02-3.33-9.31-1.84-.88.4-2.12,1.26-2.73,2.01-.1.12-.38.48-.05.44.22-.03.98-.94,1.12-.92.39.3.79.62,1.16.94.31.27,1.01,1.27.98.24,0-.34-.08-.73-.1-1.07-.02-.45.03-.89-.04-1.34,2.99-1.33,6.52-.39,8.71,1.95.06.06.26.37.28.38.06.04.32,0,.37-.05Z"/></svg>