<?xml version="1.0" encoding="UTF-8"?><svg id="Capa_14" xmlns="http://www.w3.org/2000/svg" viewBox="0 0 100 100"><defs><style>.cls-1{fill:#fff;}</style></defs><path class="cls-1" d="M57.01,18.51l-.06.07c.02.06.04.13.04.19.03,1.74-.03,3.49-.05,5.23-.3,21.29-1.23,42.56-1.47,63.87-.03,3.07.03,6.14,0,9.21.31-.26.69-.68,1.09-.79.25-.07.29.2.13.38s-.53.49-.73.68c-.08.08-.13.19-.22.27-.36.34-.83.7-1.22.19-.46.5-.86-.54-1-.88-.12-.02-.08,0-.1.07-.06.14-.07.3-.19.43-.4.45-.91-.34-1.03-.26-.11.21-.11.79-.37.83-.34.06-1.02-.65-1.44-.64-.03.02.42.66.04.56-.11-.03-.92-.93-.92-1.08-.03-.56,1.12-.07,1.37.03,0-.48.07-.96.1-1.44.33-5.78.42-11.59.58-17.39.52-18.31.87-36.66,1.27-54.98.13-1.5.04-3.04.34-4.51-1.28,0-2.56-.01-3.83,0-1.46.01-2.92.02-4.39,0-1.16-.01-2.48.09-3.62,0-.84-.07-.77-.54-.75-1.25.1-3.99.06-7.98.24-11.96.03-.7-.02-1.56.11-2.23.05-.28.14-.19.27-.29.04-.03.05-.11.11-.15.33-.25,1.7-.16,2.17-.17,5.41-.16,10.89,0,16.3,0,2.69,0,5.6-.15,8.26,0,.15,0,.64.05.74.09.41.17.09,1.31.26,1.69-.12,4.27.29,8.7.1,12.94-.01.32-.06.7-.11,1.01,0,.08-.38.28-.4.28h-11.62ZM68.16,3.37c-1.86.01-3.73-.01-5.59,0-6.55.04-13.18.2-19.73,0-.5-.02-1,0-1.49-.05.18,2.13.15,4.28.19,6.42,0,.12.05.22.05.34l.05,7.4,26.42.05.1-14.16ZM54.1,97.17c.15.03.13-.15.19-.22.08-.09.24-.05.25-.19.88-20.02,1.08-40.07,1.51-60.11.12-5.44.14-10.97.44-16.4.03-.56.01-1.11.13-1.66l-.16-.07-3.1.05c.04.09.08.17.09.27.17,1.52.02,3.11,0,4.63-.09,7.11-.34,14.2-.53,21.29-.47,17.29-1.09,34.57-1.08,51.9.09.01.11-.1.22-.12.34-.06.59.4.87.54.18-.03.12-.72.64-.63.2.03.46.54.52.73Z"/><path class="cls-1" d="M44.57,36.08c-.02.1.03.12.09.18.34.33.85.59,1.21.92,3.18,2.89,3.36,8.07,3.48,12.06.31,9.68-.84,19.62-1.36,29.32-.27,5.11-.54,10.21-.89,15.31-.05.77.02,2.11-.21,2.81-.17.52-.42.31-.74.38-3.02.68-7.05.89-10.14.62-.8-.07-1.59-.27-2.39-.3-.38-.37,1.03-1.93.94-2-.25-.07-.85.06-1-.15s.04-.87.11-1.12c.66-2.24,3.06-3.98,5.33-4.26l.06-2.13c.01-.16-.06-.31-.06-.47-.01-4.09-.2-8.16-.35-12.24-.07-1.81-.11-3.52-.36-5.31-.57-4.03-1.94-8.19-1.71-12.3.02-.44.14-.92.18-1.36l.24-3.06c-2.32-.89-3.68-3.29-4.58-5.48s-1.32-4.19-1.77-6.44c-.16-.79-.07-.8-.03-1.56.05-.95-.1-2.12-.33-3.05-.17-.71-.41-1.26-.95-1.77h-.08c-.04.25-.53.19-.74.17-3.74-.31-4.44-6.26-2.05-8.59.16-.16.78-.67.98-.39.09.3-.15.55-.16.86-.02.68.59,1.65,1.31,1.74-.16-.32-.34-1.52,0-1.69.34-.06.25.29.34.49.23.52.98.09,1.37.02-.15-.33-.41-.56-.53-.91-.37-1.05.34-2.96,1.38-3.41.97-.42.48.82.69,1.02.09.09.1-.03.13-.08.15-.24.4-1.14.75-.96.16.08.1.36.29.33,0-.66.31-1.41.68-1.95.17-.25.86-1.03,1.13-1.06.5-.05.24.52.25.79,0,.43.4.97.83,1.06-.58.35-1.22-.66-1.12-1.18l-.12-.03c-.47.66-1.04,1.24-1.12,2.1-.23,2.51,1.48,2.18,3.22,1.53.42.13-.05.41-.26.54-.81.47-2.48.72-3.1-.15-.21-.3-.36-1.11-.45-1.21-.05-.05-.35-.19-.44-.27-.27.41-.69.93.03,1.12l-.14.17c-.57-.2-.99-.73-.93-1.35-.15-.16-.82.74-.91.89-.44.76-.64,1.61-.07,2.36.61.8,1.52.76,2.34.32.28-.15.93-.74,1.11-.79.35-.09.14.33.02.49-.8,1.01-2.33,1.54-3.45.74-.49.47-1.17.67-1.81.41l.28.77c.44.01.8.04,1.16-.25.08-.06.07-.17.15-.17.05.38-.46.57-.75.63-1.46.33-2.6-.84-2.45-2.28,0-.06.05-.18-.07-.13-.07.03-.51.55-.59.65-.91,1.27-1.07,3.22-.63,4.7s1.69,2.72,3.31,2.57c-.12-.44-.03-.99-.13-1.44-.06-.27-.56-.55-.35-.84.22-.3,1.46,0,1.77.13.11.05.52.4.62.5.29.31.36.71.78.81.17-.36.31-.15.5-.19.11-.03.84-.63.77-.68-1.74.32-2.98-1.87-2.57-3.37.09-.34.66-1.29,1.01-1.36.5-.1.39.31.57.61.21.37.81.67,1.23.63l-.03.18c-.7.21-1.32-.32-1.66-.89l-.49.64c-.76,2.09,1.21,4.13,3.18,2.47.76-.64.96-1.53,1.51-2.1.09-.09.25-.22.35-.07.19.28-.34.97-.45,1.24.39.01.87-.07,1.18.21.06.21-.56.38-.75.49-.91.51-.99,1.08-1.59,1.84-.29.37-.63.71-.97,1.04.16.05.4-.09.55-.16.3-.13,1.32-.81,1.49-.82.61-.04-.24.6-.37.7-.42.3-1.33.79-1.83.83-.21.02-.4-.07-.52-.05s-.17.15-.25.17c-.24.06-.82-.44-.84-.41l.21.77c.19-.3,1.19-.16,1.3.06.2.39-.6.16-.74.26-.36.57.61.8.68.92.04.06.09.42.17.59,1.15,2.44,5.58,1.1,7.21-.18.22-.17.98-.97,1.14-.99.11-.02.13,0,.19.08.01.19-.82,1.08-1,1.24-.07.07-.41.27-.42.3-.02.11.51.65.62.91.47,1.11-.09,1.3-.68,2.04-.82,1.04-1.36,1.97-1.79,3.23-.28.83-.54,1.76-.51,2.65.12.12,1.33-.69,1.51-.83,1.43-1.16,1.94-2.46,2.99-3.81.83-1.07,2.4-1.68,3.33-.38.06.09.59.95.3.94-.44-.73-1.14-1.5-2.08-1.13-.79.31-2.38,3.04-3.12,3.86-3.34,3.69-6.36,2.19-8.2-1.85-.28-.61-.88-2.08-.98-2.69-.03-.16.25-1.44.38-1.48.73-.04,1.36.6,1.71,1.18l.49-.34c-.13-.65-.7-1.33-1.24-1.7-.32-.23-.73-.31-.95-.64-.79-1.17-.51-3.04-1.32-4.12-.08-.1-.2-.13-.27-.21-.05-.06-.12-.28-.24-.41-.4-.45-.92-.35-1.48-.44l.52.92c.81,2.04,1.45,4.28,1.37,6.5,0,.27-.14.68-.12.94.03.44.52,1.98.68,2.52.77,2.72,2.1,6.66,4.32,8.51,3.92,3.28,7.99-2.8,9.54-5.82.16-.16.35-.22.51-.03.2.24-.02.52-.14.75-.41.79-1.09,1.79-1.62,2.52-1.49,2.07-3.64,4.35-6.43,4.12-.07.91-.28,1.84-.35,2.75-.4,4.69,1.01,9.2,1.65,13.78.57,4.1.54,8.55.66,12.7.07,2.3.25,4.67.12,6.97-.01.19-.04.6-.07.76-.01.07-.08.19-.13.22-.12.08-.95.26-1.19.35-1.91.69-3.49,2-4.11,3.99.02.08.69.28.77.24.09-.04.22-.29.32-.39.99-.93,2.33-1.89,3.56-2.47.82-.39,1.61-.56,2.49-.73.03-.23.09-.45.12-.68.74-5.76.35-13.77-.72-19.48-.51-2.76-1.98-5.59-1.64-8.41.03-.21.21-1.27.39-1.33.15-.04.21.09.25.22-.23,1.68-.07,3.24.4,4.86.69,2.39,1.33,4.25,1.68,6.78.62,4.48.86,9.48.66,14-.05,1.13-.07,2.75-.31,3.83-.03.13-.28.56-.38.63-.15.11-.37.08-.51.14-.69.29-1.3.4-1.98.68-1.67.7-3.46,1.99-4.57,3.41-.07.09-.65.86-.59.91.98.07,1.95.09,2.93.12,2.21.06,4.47.02,6.68-.24.26-.03,2.07-.27,2.1-.39.08-.74.06-1.49.12-2.24.67-9.55,1.29-19.11,1.83-28.67.34-5.92.74-11.82.47-17.74-.17-3.66-.48-7.64-3.28-10.32-.5-.48-.94-.66-1.22-1.38-.06-.15-.03-.34-.09-.45-.04-.08-.19-.12-.27-.21-.68-.78-.94-1.66-.77-2.69-.43.23-.96.11-1.32-.19-.24-.19-.27-.32,0-.51,2.04,1.19,1.31-1.77.06-2.15-.85-.26-.54.87-.85.95-.2.05-.17-.16-.24-.18-.05,0-.8.23-1.06.23-1.89-.01-3.35-2.85-1.77-4.01.61-.45.58,0,.86.32.33.39.89.88,1.42.8v.18c-.84.07-1.37-.61-1.86-1.18-1.24,1.08-.5,2.87.92,3.34.35.12,1.19.06,1.5-.14.14-.1.14-.65.67-.76,1.18-.24,2.24,1.24,2.21,2.32-.01.33-.2.53-.24.77-.28,1.73,1,3.66,2.89,2.92.03-.14-.01-.09-.08-.13-.34-.19-.73-.33-.81-.79-.08-.43.48.2.53.24.15.11.5.26.68.27.22.01.45-.14.65.06.35.35-.5.61-.5.68,1.12.5,2.28,0,2.3-1.33-.22-.02-.35.23-.55.31-.55.23-1.16,0-1.32-.6-.05-.18.04-.42,0-.47-.05-.08-.64-.39-.8-.56-.2-.21-.43-.57-.41-.86.11-.11.69.56.84.66.93.66,1.48.49,1.82-.6-.24.06-.39.27-.65.33-.86.18-.93-.4-.89-1.1-.37,0-.72.05-1.06-.12-.16-.17.43-.11.5-.12,1.37-.21,2.12-.89,1.15-2.2-.23-.32-.57-.53-.95-.65-.2-.06-.4,0-.56-.15-.21.12-.35.29-.57.41-.55.3-1.27.36-1.75-.1.17-.03.33.07.5.09.47.04,1,0,1.36-.35.11-.11.17-.3.2-.33.12-.08.38.02.47-.04.03-.02.25-.51.28-.58.42-1.4-.77-2.91-2.18-3.07-.31.73-1.12,1.19-1.87.76l.03-.12c.28.15,1.15.04,1.3-.23.05-.09-.21-1.45-.3-1.66-.3-.75-1.03-1.41-1.65-1.89-.14.13-.07.33-.13.52-.17.58-.71,1.21-1.26,1.46-.43.19-1.29.4-1.24-.32.26.12.35.15.64.08.63-.16,1.46-1.03,1.43-1.7,0-.26-.31-.6.07-.76.29-.12,1.05.49,1.28.7.79.69,1.52,1.71,1.48,2.81,1.83-.25,3.41,1.76,2.91,3.48-.07.25-.21.44-.31.66,1.63.31,2.68,2.9.54,3.38-.04.05.05.77.21.81.19.06.57-.09.72-.2.22-.16.45-.75.66-.24.15.37-.23,1.36-.5,1.63s-.67.32-1.04.23c-.07.37.27.67.62.65.62-.03,1.58-1.53,1.38.31-.15,1.4-1.37,2.02-2.65,1.54-.16-.06-.43-.29-.51-.31-.15-.03-.45.16-.52.16h-.86ZM36,30.94c-.67.08-.94.72-1.42,1.09-.21.16-.45.23-.64.36-.49.34-.83.84-1.38,1.1-.24.12-.32-.02-.39.38l-.3.05.68.5c1.49-.8,2.15-2.48,3.46-3.49ZM29.79,34.55c-.08-.33-.13-.79-.41-1,.07.43.03.73.41,1ZM32.98,37.44c-.02-.14-.03-.41-.09-.53-.02-.04-.52-.45-.56-.41.13.38.31.72.65.95ZM41.07,39.5c-.03-.64-.28-1.38-.79-1.77-1.55.73-3.04,1.22-4.78,1.06-.49-.04-.9-.22-1.34-.41.19.32.73,1.02.71,1.38-.01.24-.85.8-1.08.74-.19-.05-.72-1.28-1.16-1.23.11.47-.16,1.02-.11,1.44.03.24.41,1.03.53,1.31.64,1.47,1.92,3.82,3.55,4.32.18.05.99.26,1.06.05.04-1.13.4-2.28.83-3.31.57-1.38,1.41-2.66,2.6-3.58Z"/><path class="cls-1" d="M38.77,22.13c.04.13-.08.16-.18.15-.43-.05-.91-.55-1.08-.92-.04-.1-.2-.75-.27-.7-.86,1.3-.82,3.87,1.32,3.53.3-.05.68-.29.96-.34.51-.09.02.36-.17.48-1.72,1.09-3.25-.24-3.11-2.11.04-.49.64-2.26,1.15-2.34.42-.07.18.54.21.86.05.58.58,1.31,1.18,1.39Z"/><path class="cls-1" d="M36.69,35.45c1.25-.02.92,1.27.06,1.76s-1.62-.11-1.22-1.04c.2-.47.66-.71,1.16-.72Z"/><path class="cls-1" d="M35.94,27.1c-.3.36-.78.22-1.03-.12-.48.52.03,1.27.58,1.49.33.13.67.07.95.17.27.09.14.22-.06.29-.62.23-1.64-.11-1.94-.71-.26-.5-.26-1.4.33-1.66.38-.17.31.14.46.34.17.24.45.22.71.21Z"/><path class="cls-1" d="M41.97,30.47v.23s-.36.1-.36.1c.22.32.6.75.33,1.15l-.65-1c-.11,0-.28.5-.44.32-.08-.54.66-.88,1.12-.79Z"/><path class="cls-1" d="M54.82,5.19c.86-.11,1.63.5,2.1,1.14,1.54,2.1,1.44,6.48-.21,8.51-1.24,1.52-2.85,1.13-3.82-.42-1.34-2.13-1.19-6.03.33-8.05.09-.11.28-.24.34-.34.07-.12.04-.22.15-.34.2-.23.81-.46,1.11-.5ZM54.82,8.9c-.38.02-.47.47-.54.78-.15.69-.19,2.01.48,2.44.33.03.54-.62.59-.87.09-.43.12-.96.05-1.39-.05-.28-.22-.98-.58-.95Z"/><path class="cls-1" d="M49.91,10.88c.24.04,1.38-.14,1.49,0l-.08,2.54c-.41-.04-.83.03-1.24.04-.12,0-.32-.14-.41.03l.14,2.12-2.59-.07c-.12-.09,0-.45,0-.59.01-.45-.01-.9,0-1.35h-3.3c-.04-.53-.06-1.05-.07-1.59,0-.18-.12-.39,0-.59.91-1.91,1.96-3.74,2.99-5.58.3-.03.6,0,.9,0,.64-.03,1.31-.11,1.95-.05.12,0,.24.02.34.1.04.07.03.86.02,1-.04.81-.17,1.63-.2,2.44,0,.21-.02,1.47.06,1.53ZM46.78,10.94h.76l.07-.07v-1.78l-.83,1.86Z"/><path class="cls-1" d="M64.46,11.08c.49.05.99-.07,1.46,0l-.11,2.44-1.47.04-.11.07.09,2.08-2.49-.1.05-1.86h-3.2s-.12-1.73-.12-1.73c-.01-.48.67-1.67.92-2.16.45-.87.94-1.74,1.42-2.59.08-.14.57-1.01.63-1.03.89-.01,1.9-.14,2.78-.06.44.04.33.37.32.76-.03.94-.18,1.89-.2,2.83,0,.43-.02.87.05,1.29ZM62.26,9.42c-.13-.03-.08.03-.12.1-.09.15-.77,1.6-.71,1.66l.78-.05.05-1.71Z"/></svg>