<?xml version="1.0" encoding="UTF-8"?><svg id="Capa_5" xmlns="http://www.w3.org/2000/svg" viewBox="0 0 100 100"><defs><style>.cls-1{fill:#fff;}.cls-2{stroke:#fff;stroke-miterlimit:10;stroke-width:.5px;}</style></defs><path class="cls-2" d="M16.48,40.86c0-9.44,0-14.16,1.84-17.76,1.62-3.17,4.2-5.75,7.37-7.36,3.6-1.84,8.32-1.84,17.76-1.84h20.58c9.44,0,14.16,0,17.76,1.84,3.17,1.62,5.75,4.19,7.37,7.36,1.84,3.6,1.84,8.32,1.84,17.76v20.58c0,9.44,0,14.16-1.84,17.76-1.62,3.17-4.2,5.75-7.37,7.36-3.6,1.84-8.32,1.84-17.76,1.84h-20.58c-9.44,0-14.16,0-17.76-1.84-3.17-1.62-5.75-4.19-7.37-7.36-1.84-3.6-1.84-8.32-1.84-17.76v-20.58Z"/><path class="cls-1" d="M47.84,60.63h-11.54l-2.35,7.5c-.06.28-.32.47-.6.46h-5.85c-.33,0-.45-.19-.35-.56l10-29.4c.1-.31.2-.61.3-1,.13-.68.2-1.38.2-2.08-.03-.21.15-.39.35-.36h7.95c.23,0,.37.09.4.26l11.35,32.63c.1.34,0,.51-.3.51h-6.5c-.23.03-.45-.13-.5-.36l-2.55-7.6ZM38.1,54.31h7.9c-1.3-4.43-2.76-8.81-3.95-13.28-1.34,4.63-2.59,8.93-3.95,13.28Z"/><path class="cls-1" d="M66.13,57.74c.46,3.81,3.66,5.62,7.2,5.55,2-.04,4.13-.35,6-1.1.17-.14.25-.05.25.26v4.87c.02.25-.09.48-.3.62-2.32,1.05-4.98,1.37-7.49,1.33-7.5,0-12.65-5.28-12.64-12.97-.02-7.28,4.71-13.43,12.04-13.43,6.22-.16,10.53,4.82,10.55,11.02,0,1.13-.06,2.26-.2,3.38-.03.23-.22.41-.45.41-4.97,0-9.96.07-14.94.07ZM66.13,53.07c2.77,0,5.55.1,8.32-.03.42-.04.73-.12.73-.55-.06-2.3-2-4.19-4.25-4.1-2.72-.17-4.46,2.13-4.8,4.68Z"/></svg>