<?xml version="1.0" encoding="UTF-8"?><svg id="Capa_2" xmlns="http://www.w3.org/2000/svg" viewBox="0 0 100 100"><defs><style>.cls-1{fill:#fff;}.cls-2{stroke:#fff;stroke-miterlimit:10;stroke-width:.5px;}</style></defs><path class="cls-2" d="M12.75,40.86c0-9.44,0-14.16,1.84-17.76,1.62-3.17,4.19-5.75,7.36-7.36,3.6-1.84,8.32-1.84,17.76-1.84h20.58c9.44,0,14.16,0,17.76,1.84,3.17,1.62,5.75,4.19,7.36,7.36,1.84,3.6,1.84,8.32,1.84,17.76v20.58c0,9.44,0,14.16-1.84,17.76-1.62,3.17-4.19,5.75-7.36,7.36-3.6,1.84-8.32,1.84-17.76,1.84h-20.58c-9.44,0-14.16,0-17.76-1.84-3.17-1.62-5.75-4.19-7.36-7.36-1.84-3.6-1.84-8.32-1.84-17.76v-20.58Z"/><path class="cls-1" d="M48.85,60.72h-11.54l-2.35,7.48c-.07.28-.32.48-.6.46h-5.85c-.33,0-.45-.19-.35-.56l10-29.53c.1-.31.2-.66.3-1.05.13-.68.2-1.38.2-2.08-.03-.21.15-.39.35-.36h7.95c.23,0,.37.09.4.26l11.35,32.81c.1.34,0,.51-.3.51h-6.5c-.23.03-.45-.13-.5-.36l-2.55-7.59ZM39.11,54.26h7.9c-1.3-4.43-2.76-8.81-3.95-13.28-1.28,4.48-2.68,8.93-3.95,13.28Z"/><path class="cls-1" d="M65.44,40.52c-.51.02-1.02-.07-1.49-.26-.47-.19-.9-.49-1.26-.86-.35-.39-.63-.85-.81-1.35-.18-.5-.26-1.03-.24-1.57-.02-.53.07-1.06.27-1.55.19-.49.49-.93.86-1.3.37-.36.8-.65,1.28-.84.48-.19.98-.28,1.49-.27,1.2,0,2.14.37,2.82,1.1.34.38.61.83.79,1.32.18.49.26,1.01.24,1.53.02.54-.06,1.07-.25,1.57-.18.5-.47.96-.83,1.35-.38.38-.83.68-1.32.87-.49.19-1.02.28-1.55.26ZM62,68.15v-24.5c0-.31.13-.46.4-.46h6.15c.27,0,.4.15.4.46v24.5c0,.34-.13.51-.4.51h-6.1c-.3,0-.45-.17-.45-.51Z"/></svg>