<?xml version="1.0" encoding="UTF-8"?><svg id="Capa_6" xmlns="http://www.w3.org/2000/svg" viewBox="0 0 100 100"><defs><style>.cls-1{fill:#fff;}.cls-2{stroke:#fff;stroke-miterlimit:10;stroke-width:.5px;}</style></defs><rect class="cls-2" x="13.08" y="13.08" width="73.84" height="73.84" rx="15.82" ry="15.82"/><path class="cls-1" d="M53.6,27.63c-2.2,0-3.81.21-5.12.52-1.29.31-2.29.72-3.27,1.13-3.04,1.26-5.18,2.13-6.69,2.77l-3.62,1.49c-6.67,2.74-8.07,7.21-8.07,10.48,0,5.31,4.4,9.99,11.19,9.99,1.68,0,4.18-.49,6.31-1.37l3.77-1.56,6.46-2.67c1.58-.65,2.63-1.29,2.63-3.1,0-3.29-3.36-4.44-5.51-3.56l-10.39,4.3c-1.46.6-2.52.76-2.88.76-3.44,0-3.6-2.77-3.6-2.8,0-.63,0-1.81,3.12-3.1l10.47-4.29s3.4-1.4,5.99-1.4c6.79,0,10.79,5.19,10.79,9.79,0,5.43-3.49,7.23-4.56,7.65l-16.84,6.93c-.89.37-1.25,1.45-.73,2.28l4.9,7.74c.76,1.21,1.68,2.77,3.97,2.77,1.39,0,4.07-.73,4.07-3.78,0-.84-.18-1.55-.66-2.3l-1.32-2.02c-.06-.11-.02-.25.1-.3l9.41-3.87c.5-.19,1.99-.83,3.66-2.14,2.76-2.17,5.99-6.16,5.99-12.95,0-7.79-6.79-17.38-19.58-17.38Z"/></svg>