<?xml version="1.0" encoding="UTF-8"?><svg id="Capa_7" xmlns="http://www.w3.org/2000/svg" viewBox="0 0 100 100"><defs><style>.cls-1{stroke:#fff;stroke-miterlimit:10;stroke-width:.75px;}</style></defs><path class="cls-1" d="M50.18,8.43c-23.06-.02-41.76,18.75-41.75,41.48.01,23.13,18.96,41.58,41.49,41.65,22.64.07,41.76-18.38,41.64-41.56-.03-5.77-1.84-18.6-6.37-18.28-6.86.5-7.48,14.27-8.23,18.73-1.44,8.52-4.66,17.6-10.23,24.21-6.51,8.17-16.27,12.59-26.54,10.94-12.3-1.95-20.41-11.35-23.14-18.02-2.61-5.97-3.59-14.42-.24-21.91,4.02-9.58,12.93-16.04,21.75-19.34,6.95-2.86,14.21-3.99,18.56-4.76,8.72-1.73,9.89-5.07,9.75-7.44-.05-.87-.89-2.51-2.72-3.27-3.65-1.51-9.75-2.44-13.97-2.44ZM67.84,13.08c.48,1.38.3,2.94-.51,4.35-1.13,1.94-3.37,3.64-6.57,4.47-5.67,1.48-10.31,1.92-15.03,3.33-4.54,1.35-11.77,3.53-18.41,8.84-.93,2.92-1.18,6.55-1.28,9.22.52,17.37,15.79,30.77,31.76,30.07,2.95-.13,6.65-.9,10.09-2.36,1.94-2.91,3.55-6.03,4.8-9.29h0c1.47-3.58,2.1-6.37,2.77-9.69,1.11-5.42.7-9.98,3.51-16.48.87-2.02,2.46-3.86,4.36-4.66.87-.36,1.81-.46,2.74-.25-3.08-8.56-10.79-14.98-18.22-17.55h0Z"/></svg>