<?xml version="1.0" encoding="UTF-8"?><svg id="Capa_11" xmlns="http://www.w3.org/2000/svg" viewBox="0 0 100 100"><defs><style>.cls-1{fill:#fff;}</style></defs><path class="cls-1" d="M87.16,23.14c.39.98.71,1.94.9,2.98.46,2.44.55,5.06.47,7.53,2.55,5.43,3.31,11.68,2.77,17.64-.94,10.32-6.28,19.95-13.57,27.1.53.16,1.13.12,1.66.3.23.08.73.3.74.58,0,.1-.25.65-.31.77-.16.31-.39.63-.62.89-2.89,3.32-9.79,5.7-14.09,6.13-.85.08-1.72.06-2.54.14-.34.03-.56,0-.75-.32-.29-.49-.08-1.36.05-1.89.18-.76.47-1.57.78-2.28-1.34.64-2.67,1.3-4.08,1.81-8.81,3.17-18.02,1.88-26.15-2.47-7.17-3.84-12.17-10.28-13.98-18.25s.63-15.98,6.22-21.79c.31-.32.81-.67,1.05-1,.42-.59.83-1.49,1.23-2.14,9.36-15.24,28.91-26.07,46.71-19.18,4.25,1.64,8.04,4.29,10.95,7.8.69-1,1.33-2.05,1.91-3.12.22-.4.38-.87.66-1.22ZM52.04,33.04c.2-.19.85-1.45,1.1-1.81,3.76-5.58,9.92-9.1,16.79-7.53,4.4,1,8.53,3.79,11.62,6.98.56-.07,1.03-.52,1.4-.93-4.64-6.14-12.18-9.63-19.83-9.89-13.72-.46-26.64,7.31-34.39,18.25l-.64.99c3.12-2.08,6.81-3.87,10.51-4.65,1.66-.35,5-.48,5.52,1.68.37,1.53-1.46,3.6-1.85,5.12-.79,3.08.47,6.76,1.82,9.51-.5,1.98-.52,3.95.31,5.84,1.06,2.44,2.89,2.57,4.37.38.51-.76.88-1.67,1.23-2.51-2.54-1.98-4.54-4.93-5.61-7.96-.92-2.61-1.3-4.34.24-6.79,1.41-2.23,3.25-4.05,5.44-5.49.48-.32,1.62-.86,1.96-1.19ZM61.76,32.09c-1.03.07-2.06.32-3.09.38-.8.04-1.53-.07-2.31-.09-.17,0-.21.15-.2.3.02.29.21.78.28,1.1.19,1.01.32,2.03.53,3.04.05.25.36,1.78.44,1.86.15.15.59-.03.78-.05,3.14-.25,5.52.31,8.26,1.8.36.2,1.09.76,1.39.86.64.22.43-.69.38-1.06-.27-1.9-1.53-4.39-2.45-6.09-.28-.52-.84-1.54-1.27-1.9-.12-.1-.51-.14-.68-.15-.6-.04-1.43-.03-2.04.02ZM75.33,38.44c-1.69.15-4.96,1.61-6.14,2.84-.14.14-.2.27-.05.44,2.77.27,5.33,1.57,7.52,3.23.18.14.88.79,1.01.8.26.02,1.27-.28,1.57-.38,1.7-.53,3.11-1.48,4.4-2.67-.49-.22-1.01-.32-1.5-.55-1.61-.76-2.17-2.01-3.52-2.93-1.16-.8-1.88-.9-3.3-.78ZM76.01,74.98c7.91-7.93,13.4-19.91,12.22-31.31-.16-1.59-.48-3.17-.88-4.71l-.87,1.79c-.27.6-1.03,1.17-1.04,1.85-.04,4.83-2.03,9.58-5.32,13.09-.73.78-1.7,1.67-2.62,2.21-.27.16-.56.28-.84.43.49,4.56-.51,8.9-2.5,12.97-.13.27-.81,1.39-.82,1.57-.02.34.17,1.05.2,1.46.05,1-.02,2.01-.1,3,.88-.76,1.75-1.54,2.57-2.36ZM71.53,50.73c1.43.27,2.87.4,4.32.29.34-.03,1.5-.12,1.73-.27.16-.1.19-.34.1-.49-.11-.18-.6-.24-.81-.26-.94-.12-1.93-.14-2.87-.25-5.08-.59-8.92-1.78-13.26-4.47-1.08-.67-2.16-1.51-3.27-2.1-.16-.08-.56-.31-.71-.32s-.27.15-.24.29c.07.43,1.54,1.52,1.94,1.82,2.51,1.92,5.31,3.37,8.27,4.47.12.24.26.47.34.73.44,1.34.6,2.96.98,4.35.21.77.41,1.4,1.11.47.89-1.17,1.46-2.68,2.3-3.9l.08-.39Z"/></svg>