<?xml version="1.0" encoding="UTF-8"?><svg id="Capa_9" xmlns="http://www.w3.org/2000/svg" viewBox="0 0 100 100"><defs><style>.cls-1{fill:#fff;fill-rule:evenodd;}</style></defs><path class="cls-1" d="M50,50c0-5.88,4.77-10.64,10.64-10.64s10.64,4.77,10.64,10.64-4.77,10.64-10.64,10.64-10.64-4.77-10.64-10.64Z"/><path class="cls-1" d="M28.71,71.29c0-5.88,4.77-10.64,10.64-10.64h10.64v10.64c0,5.88-4.77,10.64-10.64,10.64s-10.64-4.77-10.64-10.64Z"/><path class="cls-1" d="M50,18.07v21.29h10.64c5.88,0,10.64-4.77,10.64-10.64s-4.77-10.64-10.64-10.64h-10.64Z"/><path class="cls-1" d="M28.71,28.71c0,5.88,4.77,10.64,10.64,10.64h10.64v-21.29h-10.64c-5.88,0-10.64,4.77-10.64,10.64Z"/><path class="cls-1" d="M28.71,50c0,5.88,4.77,10.64,10.64,10.64h10.64v-21.29h-10.64c-5.88,0-10.64,4.77-10.64,10.64Z"/></svg>