<?xml version="1.0" encoding="UTF-8"?><svg id="Capa_3" xmlns="http://www.w3.org/2000/svg" viewBox="0 0 100 100"><defs><style>.cls-1{fill:#fff;}.cls-2{stroke:#fff;stroke-miterlimit:10;stroke-width:.5px;}</style></defs><path class="cls-2" d="M12.75,40.48c0-9.44,0-14.16,1.84-17.76,1.62-3.17,4.2-5.75,7.37-7.36,3.6-1.84,8.32-1.84,17.76-1.84h20.58c9.44,0,14.16,0,17.76,1.84,3.17,1.62,5.75,4.19,7.37,7.36,1.84,3.6,1.84,8.32,1.84,17.76v20.58c0,9.44,0,14.16-1.84,17.76-1.62,3.17-4.2,5.75-7.37,7.36-3.6,1.84-8.32,1.84-17.76,1.84h-20.58c-9.44,0-14.16,0-17.76-1.84-3.17-1.62-5.75-4.19-7.37-7.36-1.84-3.6-1.84-8.32-1.84-17.76v-20.58Z"/><path class="cls-1" d="M38.27,35.33v32.65c0,.34-.15.51-.45.51h-6.05c-.27,0-.4-.17-.4-.51v-32.65c0-.27.15-.41.45-.41h6.05c.23-.03.43.17.4.41Z"/><path class="cls-1" d="M56.16,69c-2.3.04-4.58-.45-6.67-1.44-4.44-2.11-6.37-6.78-6.37-11.58-.04-4.8,2.5-9.37,6.65-11.64,2.86-1.63,6.23-2.04,9.45-1.74v-10.1c0-.24.1-.36.3-.36h6.3c.17-.03.32.13.3.31v30.29c0,1.25.12,2.5.2,3.74.01.21-.11.42-.3.51-1.62.69-3.32,1.21-5.05,1.54-1.58.3-3.19.45-4.8.46ZM59.21,62.65v-13.99c-4.54-1.26-9,2.21-9,7.02-.11,5.04,4.39,8.35,9,6.97Z"/></svg>