<?xml version="1.0" encoding="UTF-8"?><svg id="Capa_4" xmlns="http://www.w3.org/2000/svg" viewBox="0 0 100 100"><defs><style>.cls-1{fill:#fff;}.cls-2{stroke:#fff;stroke-miterlimit:10;stroke-width:.5px;}</style></defs><path class="cls-2" d="M12.75,39.71c0-9.44,0-14.16,1.84-17.76,1.62-3.17,4.19-5.75,7.36-7.37,3.6-1.84,8.32-1.84,17.76-1.84h20.58c9.44,0,14.16,0,17.76,1.84,3.17,1.62,5.75,4.2,7.36,7.37,1.84,3.6,1.84,8.32,1.84,17.76v20.58c0,9.44,0,14.16-1.84,17.76-1.62,3.17-4.19,5.75-7.36,7.37-3.6,1.84-8.32,1.84-17.76,1.84h-20.58c-9.44,0-14.16,0-17.76-1.84-3.17-1.62-5.75-4.2-7.36-7.37-1.84-3.6-1.84-8.32-1.84-17.76v-20.58Z"/><path class="cls-1" d="M28.71,65.42V31.93c0-.23.09-.36.31-.36,3.22,0,6.43-.2,9.65-.2,5.22,0,10.88,1.82,12.86,7.39.47,1.37.72,2.77.72,4.23,0,2.8-.62,5.11-1.87,6.93-3.48,5.09-9.51,5.01-14.91,5.01v10.45c.04.31-.22.46-.47.46h-5.92c-.25,0-.37-.13-.37-.42ZM35.5,37.85v10.94c2.14.16,4.39.18,6.44-.52,2.27-.67,3.52-2.67,3.52-5.08.06-2.05-1.03-4.01-2.9-4.75-2.03-.86-4.87-.91-7.07-.59Z"/><path class="cls-1" d="M56.47,39.92h5.46c.3,0,.57.22.65.52.4.93.45,2.05.45,3.05.94-1.14,2.07-2.09,3.33-2.8,1.36-.8,2.9-1.21,4.46-1.18.26-.04.49.2.45.47v6.34c0,.24-.17.37-.5.37-2.31-.17-5.91.4-7.59,2.31v16.49c0,.31-.13.47-.4.47h-5.86c-.29.04-.54-.23-.5-.52v-17.9c0-2.4.05-4.87-.3-7.25-.05-.22.15-.42.35-.37Z"/></svg>