<?xml version="1.0" encoding="UTF-8"?><svg id="Capa_8" xmlns="http://www.w3.org/2000/svg" viewBox="0 0 100 100"><defs><style>.cls-1{fill:#fff;stroke:#000;stroke-width:.75px;}.cls-1,.cls-2{stroke-miterlimit:10;}.cls-2{stroke:#fff;stroke-width:.5px;}</style></defs><path id="App_Icon" class="cls-2" d="M29.68,12.75h40.64c9.35,0,16.93,7.59,16.93,16.93v40.64c0,9.35-7.59,16.93-16.93,16.93H29.68c-9.35,0-16.93-7.59-16.93-16.93V29.68c0-9.35,7.59-16.93,16.93-16.93Z"/><path class="cls-1" d="M31.59,61.53c-1.35.96-2.52,2.03-3.54,3.15-5.78,6.36-6.66,14.52-6.66,14.52,0,0,2.47-12.31,11-15.59,8.25-3.18,21.17-5.17,25.71-7.99,2.05-1.28,0,0,0,0-10.52,4.12-18.19.01-26.5,5.91Z"/><path class="cls-1" d="M76.39,41.85c-1.53,1.88-3.47,3.63-5.91,5.13-7.83,4.82-15.13,5.22-22.49,6.38-6.02.95-11.9,3.67-16.63,7.82-1.25,1.1-2.35,2.28-3.31,3.5,1.02-1.12,2.19-2.19,3.54-3.15,11.17-7.93,19.88,2.38,39.87-13.98,1.98-1.87,3.61-3.78,4.93-5.69Z"/><path class="cls-1" d="M31.36,61.18c4.73-4.16,10.61-6.88,16.63-7.82,7.36-1.16,14.66-1.55,22.49-6.38,2.44-1.5,4.38-3.25,5.91-5.13,3.99-5.78,5.25-11.56,5.47-16.03.13-4.78-.78-8.28-.78-8.28,0,0,2.14,14.02-11.71,21.84-10.21,5.77-26.43,4.69-37.61,15.47-11.34,10.93-10.38,24.33-10.38,24.33,0,0,.88-8.16,6.66-14.52.97-1.22,2.07-2.4,3.31-3.5Z"/><path class="cls-1" d="M67.25,36.17c-16.74,8.72-24.54,5.02-35.97,15.95-11.38,10.89-9.89,27.08-9.89,27.08,0,0-.96-13.4,10.38-24.33,4.82-4.64,10.57-7.09,16.37-8.83,2.27-1.13,5.15-2.52,8.82-4.22,5.05-2.35,8.23-4.15,10.29-5.65Z"/><path class="cls-1" d="M81.09,17.55s-.51,11.06-10.96,17.05c-.99.57-1.95,1.09-2.88,1.58-2.06,1.5-5.24,3.3-10.29,5.65-3.67,1.7-6.55,3.09-8.82,4.22,7.67-2.3,15.43-3.37,21.24-6.65,13.85-7.82,11.71-21.84,11.71-21.84Z"/></svg>