<?xml version="1.0" encoding="UTF-8"?><svg id="Capa_1" xmlns="http://www.w3.org/2000/svg" viewBox="0 0 100 100"><defs><style>.cls-1{fill:#fff;}.cls-2{stroke:#fff;stroke-miterlimit:10;stroke-width:.5px;}</style></defs><path class="cls-2" d="M12.75,40.86c0-9.44,0-14.16,1.84-17.76,1.62-3.17,4.2-5.75,7.37-7.36,3.6-1.84,8.32-1.84,17.76-1.84h20.58c9.44,0,14.16,0,17.76,1.84,3.17,1.62,5.75,4.19,7.37,7.36,1.84,3.6,1.84,8.32,1.84,17.76v20.58c0,9.44,0,14.16-1.84,17.76-1.62,3.17-4.2,5.75-7.37,7.36-3.6,1.84-8.32,1.84-17.76,1.84h-20.58c-9.44,0-14.16,0-17.76-1.84-3.17-1.62-5.75-4.19-7.37-7.36-1.84-3.6-1.84-8.32-1.84-17.76v-20.58Z"/><path class="cls-1" d="M28.71,68.49v-32.76c0-.22.09-.35.31-.35,3.21,0,6.41-.19,9.62-.19,5.21,0,10.84,1.78,12.82,7.23.46,1.34.71,2.71.71,4.14,0,2.74-.62,5-1.86,6.78-3.47,4.98-9.48,4.9-14.87,4.9v10.22c.04.3-.22.45-.47.45h-5.9c-.25,0-.37-.13-.37-.41ZM35.48,41.52v10.7c2.14.16,4.37.17,6.43-.51,2.27-.65,3.51-2.62,3.51-4.97.06-2-1.03-3.93-2.89-4.65-2.03-.84-4.86-.89-7.05-.57Z"/><path class="cls-1" d="M71.54,50.1c-.94-.5-1.94-.86-2.97-1.08-1.33-.31-6.57-1.41-6.57,1.33.05,1.53,2.47,2.28,3.55,2.72,3.77,1.29,8.03,3.61,7.95,8.25.12,5.79-5.49,8.1-10.3,8.1-2.5.03-5.11-.36-7.4-1.44-.22-.12-.36-.36-.35-.61v-5.54c-.02-.22.21-.42.4-.26,2.24,1.36,4.9,2.02,7.5,2.05,1.15,0,3.42-.11,3.4-1.79,0-1.62-2.72-2.36-3.8-2.77-1.57-.56-3.06-1.34-4.42-2.31-1.91-1.36-3.11-3.54-3.07-5.95-.01-5.45,5.15-7.89,9.8-7.89,2.17-.02,4.51.14,6.53,1.03.29.09.35.39.35.67v5.18c.02.32-.34.43-.58.31Z"/></svg>