<?xml version="1.0" encoding="UTF-8"?><svg id="Capa_10" xmlns="http://www.w3.org/2000/svg" viewBox="0 0 100 100"><defs><style>.cls-1{fill:#fff;}</style></defs><path class="cls-1" d="M60.89,18.85l.72-1.05c-.75-1.02-.65-2.33-.16-3.44.15-.34.77-1.54,1.26-1.23.22.31-.12.65-.12,1,0,.45.38.96.71,1.25.16.14.38.35.61.27,2.67-2.18,6.96-1.22,8.35,1.93-.78.2-1.69.38-2.36.84-.56.38-1.36,1.08-1.35,1.8.19-.13.24-.37.39-.56.65-.83,1.67-1.33,2.67-1.57.15-.04.75-.15.84-.09.29.69.43,1.48.34,2.22-.99-.54-1.85-.68-2.95-.39-.35.09-.9.25-1.15.49.38.02.73-.11,1.11-.13.83-.04,1.69-.05,2.5.16.68.18.86.38,1.27.93s.97,1.51.89,2.19-1.77,2.29-2.35,2.73c-2.28,1.73-4.42,1.77-7.01.62l-.85-.42c.17.17.4.58.57.71.14.11.74.38.94.46.34.15.72.23,1.07.37-.05.11-.22.08-.19.26.01.06.56.84.65,1.01.59,1.06.63,2.13,2.1,2.25,1.35.11,2.49-.63,3.34-1.6.03-.2-1.33-1.26-1.56-1.41-.57-.35-.94-.4-1.56-.59-.05-.01-.11,0-.1-.07.33,0,.75-.26,1.06-.29.41-.04,1.29.6,1.6.88l.93.98c.52-.8,1.2-1.96.49-2.83-.1-.13-.77-.62-.29-.68.28-.04,1.17.5,1.43.66,4.34,2.73,7.82,9.84,5.74,14.81-1.42,3.4-5.01,4.09-8.23,2.83.6,1.72.4,3.57.15,5.34,1.35,1.29,2.53,2.93,3.36,4.61,1.48,3.03.85,4.78-1.71,6.78-1.53,1.19-3.34,1.94-5.17,2.54,3.05,2.22,5.87,4.98,7.47,8.45.06.04.41.03.52.02,4.79-.24,7.85,3.15,5.52,7.76-1.92,3.8-6.26,6.64-10.18,8.01-.02.07.02.08.05.12.19.28.58.6.8.91.57.77,1.28,2.07,1.2,3.05-.03.35-.13.7-.48.84-.42.17-1.65.34-2.14.4-2.11.23-4.64,0-6.55-.96-2.61,2.04-6.36,1-8.98-.49-.96-.54-1.92-1.22-2.68-2-.76.27-1.55.45-2.35.57-5.83.91-13.38-2.24-16.82-7.04-2.2-3.05-2.93-6.93-.61-10.16,1.87-2.61,4.25-2.67,7.24-2.38,2.79.28,5.52,1.09,7.89,2.59.1-.14-.89-2.91-1.07-3.26-1.77-3.47-4.41-4.52-7.4-6.62-3.76-2.64-7.17-6.01-9.79-9.79-.74-1.07-1.51-2.21-1.96-3.43-1.66.31-2.97-.21-3.88-1.62-.49-.76-.95-1.77-.81-2.68-1.02.58-2.21,1.34-2.98,2.22-1.78,2.04-.02,2.8,1.25,4.22.3.33.56.69.78,1.07l.27-1.34c.24-.16.51.3.61.47.4.7.56,2.16.47,2.95-.04.4-.23.41-.6.35-1.01-.16-2.16-1.24-2.6-2.13-.14-.28-.31-.6-.11-.87h.07s.81.26.81.26c-.81-1.13-2.52-2.1-2.33-3.7.16-1.37,1.7-2.67,2.82-3.33.36-.21.74-.44,1.17-.47l-.89-1.33c-.58-1.07.31-2.21,1.18-2.79.16-.11.6-.28.68-.35.07-.06.1-.28.15-.38.31-.59.89-.91,1.5-1.14.23-.09.7-.17.86-.27.09-.05.23-.31.35-.43.56-.53,1.45-.85,2.22-.71.35-.6,1.1-1.07,1.79-1.14.52-.05.58.05.95.36.11.09.37.45.49.39.02-.01.36-.32.41-.37,2.92-2.87,5.7-6.06,8.57-9.01,1.52-1.56,3.06-3.09,4.64-4.59.8-2.58,2.64-4.36,5.28-4.97,1.57-.37,3.14-.45,4.53.5-.01-1.49-.19-2.98-.39-4.46-1.36-.2-2.17-1.88-.78-2.67.07.27.36.53.63.59,0,.24-.13.4.03.63.22.33.63.37.98.43l-.1.74c.32-.16.24-.64.33-.82,0-.02.19-.17.25-.26.1-.16.46-.86.28-1l-.15-.02c-.07.2-.36.88-.54.95-.15.06-.68-.07-.72-.31-.03-.14.25-1.12.32-1.32.43-1.26.94-.96,1.45.04.16-.32.17-.61-.11-.85.28-.84,1.24-1.07,1.89-.46-.3-1.14-1.5-1.43-2.35-.61-.05.05-.37.44-.39.49-.06.15.28,0,.29.12-.21-.01-.6.04-.78-.07-.09-.06.11-.31.16-.38.62-.94,1.84-1.52,2.85-.77.86.65.88,1.82.63,2.78-.04.17-.12.62-.34.62l-.16-.11c-.1-.52.09-2.2-.87-1.78-.26.12-.52.53-.49.81.01.11.31.64.38.83.2.6.19.96.19,1.56,0,.24.82,1.78.99,2.14.42.93.85,1.87,1.21,2.82ZM56.59,14.5l-.44.23c.74,3.35.61,6.98-.11,10.33-.51,2.39-1.42,4.94-3.16,6.7,1.28.61,2.83,1.13,4.27.95.21-.03.93-.15,1-.37.13-.44-.67-.88-.71-1.04-.07-.33.32-.31.55-.21.64.3,1.15,1.32.45,1.84-1.35,1.01-5.3-.2-6.58-1.12-1.71-1.24-2.19-3.5-.88-5.22,0-.04-.05-.03-.07-.02-.51.16-1.69,1.12-2.08,1.54-2.43,2.57-3.77,8.44-2.12,11.65,1.18,2.3,5.49,4.67,7.62,2.34.41-.45.58-.99.91-1.43.36-.47.85-.14.75.26-.05.2-.46.87-.59,1.07-.45.68-1.03,1.26-1.8,1.57-.28.11-.58.14-.85.27,1.48,1.54,3.76,2.28,5.86,2.37-.04-.21-.86-1.09-.27-1.02.34.04.95.73,1.2.98l-.02-1.03c-.36-.24-.74-.41-1.07-.68-.75-.63-1.23-1.57-1.58-2.48-.07-.18-.42-1.02-.25-1.13.06-.01.12,0,.18.04.24.12.82,1.35,1.02,1.67,1.88,2.96,5.23,2.78,7.69.62,3.66-3.23,3.48-7.81,1.73-12.04-.48-1.16-1.06-2.32-1.95-3.22-.3,2.51-2.26,4.08-4.78,3.86-1.02-.09-2.25-.83-1.66-2,.18-.35.91-1.09,1.29-.71-2.03,1.19-.64,2.34,1.15,2.22,1.69-.11,2.88-1.19,3.3-2.8-2.35-1.98-4.08-4.49-5.42-7.24-.66-1.36-1.32-2.84-1.78-4.28-.17-.54-.27-1.18-.46-1.69-.09-.24-.31-.46-.31-.74ZM63.43,17.38c.25.12.46.24.73.32,1,.28,1.76.21,2.59,1.03.45.44.62,1.05.96,1.49.04.05.08.14.14.05.2-.35-.59-1.57-.86-1.83-1.12-1.1-2.24-.7-3.29-1.25-.17-.09-.38-.41-.52-.21-.11.16-.16,1.08-.15,1.31.03.47.24.83.44,1.24-.2.05-.44.14-.39.39,1.3-.37,2.49-.43,3.71.22.09.05.49.36.54.32-.18-.4-.69-.71-1.07-.9-.84-.43-1.54-.36-2.44-.19-.42-.57-.51-1.29-.39-1.98ZM61.03,19.09c-.06-.05-.34.72-.26.82.56,1.16,1.02,2.38,1.59,3.54.1.2.42.89.56,1.01.18.16.37-.17.3-.34l-2.18-5.03ZM64.09,21.39c-.09.08-.11.21-.12.32-.29,2.66,2.32,5.6,5.08,5.03,1.34-.28,2.22-1.42,2.38-2.74.04-.35,0-.54-.14-.88-.1-.07-1.42.25-1.69.27-1.95.14-4.13-.63-5.52-2ZM41.41,36.82c-.61-1.66-.3-3.48.31-5.09.47-1.24,1.4-3.12,2.84-3.28.11-.01.29-.22.32.1.03.25-.08.56-.05.87.07.64.68,1.41,1.29,1.64l1-1.99c-.88-1.03-1.16-2.21-1.07-3.56.02-.35.15-.7.19-1.03,0-.05.03-.13-.04-.12,0,.06-.04.11-.07.15-4.21,4.69-8.53,9.27-12.86,13.84.25.34.5.74.6,1.15.14.55.12,1.07.25,1.65.44,1.89.26,3.91.36,5.85.03.52.09,1.05.26,1.55,2.1,2.7,4.44,5.17,7.19,7.22-.2-.72-.17-1.47.12-2.16-.27-.3-.57-.56-.81-.9-1.16-1.61-1.49-4.49.37-5.72.06-.04.44-.17.36-.25-1.48-.46-2.4-2.22-2.87-3.6-.73-2.19-.9-5.96,1.01-7.6.12-.11.08-.28.38-.14.25.12.61,1.23.94,1.43ZM67.87,41.89c.95-.21,2.07-.06,2.91.43.21.12.69.59.79.62.13.04.28.02.43.05.47.12,1.03.45,1.55.6,4.88,1.45,7.16-2.75,6.56-7.05-.51-3.65-2.91-7.22-5.73-9.5.1,1.58-1,3.21-2.23,4.12-1.08.8-2.5,1.1-3.76.52.84,2.33,1.04,4.82.64,7.27,1.22.19,2.18,1.09,2.79,2.12.25.43.42.9.67,1.33.09.15.35.34.29.53-.03.08-.14.13-.22.1-.14-.06-.73-.68-.92-.84-.88-.73-2.02-1.58-3.22-1.31l-.57,1.02ZM44.29,29.05s-.4.28-.44.32c-1.89,1.75-3.65,7.33-.65,8.76.41.2,1.28.22,1.04.83-.1.15-1.11-.02-1.31-.06-.67-.15-1.32-.45-1.83-.9l-.95-1.37c-.99,2.36-.77,5.16.35,7.44.79,1.61,1.66,2.18,3.48,2.08.53-.03,1.28-.25,1.76-.23.53.02.13.33-.15.43-.57.22-1.28.34-1.88.44-.03.12.02.08.06.11.45.31.78.52,1.1,1,.08.12.45.73.23.8-.38-.14-.65-.49-1-.7-2.42-1.48-3.46.89-2.89,2.99.35,1.29,1.87,3.22,3.37,2.36.51-.29.45-.51.68-.93.2-.37.87-.28.68.29-.05.16-.43.67-.56.81-.76.82-1.86.93-2.83.42-.08.47-.09.99.03,1.45.21.77,1.1,1.48,1.9,1.52.26.01,1.35-.18,1.44-.06.23.31-.36.55-.58.64l-.72.21,2.52,1.27c-.45-.62-.84-1.32-1.04-2.06-.12-.43-.24-1.09-.18-1.53,0-.07.03-.14.1-.07.41,1.1,1.05,2.43,1.88,3.27,4.57,4.63,12.65,5.53,18.78,4.27,2.91-.6,6.37-1.9,8.35-4.2,1.45-1.68.19-4.15-.74-5.75-.56-.97-1.22-1.89-1.97-2.72l-.39,1.02c-.79,2.03-2.76,4.66-5.25,4.18-.93-.18-1.49-.83-1.8-1.69l-.22.39c-.14.2-.8.82-.89.31-.04-.19.35-.48.47-.68,1.13-1.88-2.28-3.56-3.58-1.87-.48.62-.31,1.24-.07,1.91-.32-.01-.52-.55-.56-.83-.3-1.88,2.01-2.61,3.44-1.96-.18-.43-.35-.85-.42-1.31-.25-1.55.32-3.02.96-4.4-1.02.48-2.13.56-3.22.29.28.64.87,1.48.57,2.21-.07.18-.7.44-.9.51-.93.33-1.93.34-2.9.19-.36-.05-.71-.17-1.06-.23.62.97,1.09,2.15,1.39,3.27.24.89.39,2.58-.2,3.37s-.72-.47-.86-.84c-.96-2.41-4.61-3.57-6.68-1.87-.28.23-.73.78-.83,1.12-.08.27,0,.71-.42.52-1.29-1.74-2.03-3.95-1.1-6.04.63-1.42,2.04-2.51,3.62-2.58-.26-.28-.55-.52-.81-.81s-.65-.93-.87-1.11c-.18-.16-.79-.41-1.06-.58-1.61-1.01-2.63-2.25-3.12-4.11-.61-2.31-.27-4.72.43-6.96-1.04-.34-1.87-1.39-1.66-2.52ZM33.2,39.89c-.14-.69-.49-1.3-.89-1.87-.1-.14-.58-.8-.7-.81-.26-.01-.98.34-1.2.51-.13.1-.58.63-.62.65-.09.03-.37-.05-.53-.04-.51.03-1.31.41-1.66.78-.11.11-.23.42-.32.46-.1.05-.34.07-.48.11-.61.2-1.49.53-1.81,1.12-.07.13-.1.36-.17.44-.08.09-.39.2-.52.29-.69.45-1.35,1.02-1.42,1.91-.04.5.8,1.47,1.25,1.67.74.32,1.66-.05,2.3-.43v-.06c-.21-.36-.15-.78-.26-1.15-.06-.2-.81-1.54-.76-1.61l.46.24.51.59c.2-.76.77-1.24,1.41-1.64.04-.17-.83-.95-.44-1.22.36-.18.89.61,1.02.88l1.46-.62c.04-.06-.34-.82-.23-1.14.02-.06.06-.08.12-.08.32-.03.42.88.69,1.02.93-.3,1.83-.31,2.75,0ZM71.73,41.7l-.64-.95c-.55-.7-1.27-1.3-2.15-1.54l-.39,1.37c1.22-.22,2.23.46,3.17,1.12ZM25.42,45.9c-.27.03-.58-.02-.85,0,.38,1.73,1.37,3.47,3.39,3.32.61-.04.68-.26,1.17.29.7.78,1.37,2.05,1.99,2.95,2.92,4.19,6.2,7.49,10.38,10.42,1.57,1.11,3.42,2.11,4.73,3.52,1.06,1.15,2.38,3.29,2.83,4.79.21.71.43,1.55.32,2.29l2,1.45c-.03.07-.12,0-.16-.03-.88-.45-1.7-.98-2.6-1.4-2.94-1.37-7.14-2.51-10.4-2.35-1.78.09-2.73.56-3.77,1.99-2.86,3.92-.85,8.44,2.33,11.37,3.79,3.48,9.13,5.06,14.24,4.91l3.39-.34-.49.29c2,1.35,4.26,2.77,6.72,3.07,1.05.13,3.04-.07,3.78-.9,2.13-2.4-.53-6.83-2.34-8.69-.95-.97-2.29-2.06-3.4-2.85-.37-.26-1.71-1.17-2.07-1.26-.16-.04-.81.11-1.05.13-4.7.27-9.89-1.61-13.68-4.29-.44-.31-.91-.65-1.28-1.04l1.71.95c4.15,2.07,8.51,3.91,13.26,3.79.38-.01.96-.14,1.31-.1.44.05,1.06.47,1.49.63-.11-1.53-.14-3.08,0-4.61.19-2.03.69-3.94,1.18-5.9.15-.21.34-.31.57-.41,1.31-.56,4.51-.91,5.86-.51,1.43.41.81,1.22.6,2.31.25-.11.46-.28.72-.38.5-.2,1.17-.36,1.6.09.82.83-.4,2.46-.77,3.29-.3.69-.65,1.58-.53,2.33-.57-.1-.38-1.06-.28-1.47.23-.99.76-1.73,1.08-2.63.11-.3.23-.72,0-.98-.31-.22-1.17.21-1.44.42-.81.64-.86,1.65-1.26,2.54.17.16.38.28.33.56-.07.07-.76-.34-.89-.4-.85-.37-1.66-.43-2.57-.21-.86.21-2.04,1-1.57,2.01s1.74.81,2.67.9c.2.02.61.08.35.34-.19.18-1.28.22-1.57.19-.37-.03-.85-.15-1.18-.34-.27-.16-.41-.38-.67-.54-.8.28-1.43,1.85-1.19,2.59.32.99,1.99.62,2.74.73.16.02.44.14.26.32-.1.1-1.22.29-1.43.31-.53.03-.96-.1-1.44-.29l-.05.4c.53.28,1.06.85,1.62,1.02.44.13,1.06.2,1.52.23.23.01,1-.06,1.13.04.38.29-.43.38-.59.39-.52.04-1.03-.03-1.54-.15l1.37,1.34c5.71.15,15.81-2.35,12.42-10.23-1.49-3.47-4.57-6.05-7.33-8.49-4.35,1.01-8.94,1.04-13.26-.12-1.93-.52-3.95-1.31-5.57-2.49-.39-.28-.96-.89-1.31-1.08-.44-.24-1.11-.43-1.59-.66-4.41-2.03-8.36-5.09-11.44-8.82-.7-.85-.88-1.24-1.15-2.32-.39-1.55-.28-3.17-.27-4.76,0-.77.15-1.62-.11-2.38-.1-.29-.22-.43-.51-.51-1.32-.39-2.77.3-3.93.87-1.06.52-2.32,1.09-2.01,2.53.14.66.56.53,1.07.48.42-.05.85-.13,1.26-.2.61-.11,2.58-.72,3-.67.32.04.13.25-.03.37-.28.21-1.69.85-2.06.97-.99.33-2.11.39-3.14.28-.49.31-1.02.71-1.61.78ZM58.84,45.95c0,.22.31.53-.03.63-.64.19-2.19-.12-2.85-.32-1.43-.42-2.84-1.21-3.71-2.44-.59,0-1.15-.11-1.71-.27.76.98,1.71,1.86,2.72,2.58,1.86,1.31,4.87,2.59,7.13,1.78.16-.06.68-.25.69-.42.02-.3-.27-1.02-.41-1.3-.06-.12-.47-.81-.53-.86-.04-.03-.26-.08-.28-.06.1.41.02.79,0,1.2-.01.19.14.62-.28.45-.19-.36-.42-.72-.74-.96ZM66.8,44.73c-1.01-.32-2.05.98-2.37,1.81-.25.65-.23,1.41.68,1.27.42-.07,1.3-1.06,1.49-1.46-.76-.12-.6-.9-.19-1.34l.39-.27ZM52.98,46.53l-.98-.83c-.13.23-.41.39-.59.61-1.31,1.64.42,2.85,1.66,1.31.02-.1-.29-.21-.36-.31-.21-.29-.11-.74.27-.78ZM23.83,55.27c.04-.85-.09-1.68-.34-2.49-.06-.01-.06.05-.07.1-.1.31-.11.98-.5,1.06-.45.1-1.2-.44-1.58-.67-.04.04.34.54.39.61.55.69,1.23,1.17,2.1,1.39ZM65.28,72.61c.01-.57.15-1.18.37-1.71.1-.24.26-.43.33-.69.17-.62.18-1.35.37-1.97l-.05-.09c-.16-.06-.32-.11-.49-.15-1.1-.24-2.65-.09-3.77.09-.31.05-1.83.39-1.96.57-.3,1.66-.54,3.36-.66,5.05l.05,1.93c.26-.26.52-.63.93-.64-.48-1.4.86-2.47,2.1-2.71.66-.13,1.29-.15,1.95,0,.29.07.56.19.83.32ZM68.26,85.89c.32.05.63.2.93.32.55.22,1.73.89,2.26.79.68-.13,2.16-.85,2.82-1.18,3.24-1.66,8.33-5.73,7.95-9.81-.25-2.65-3.38-3.51-5.61-3.5.79,2.04.76,4.08-.42,5.95-1.28,2.03-3.51,3.11-5.73,3.79s-4.4.92-6.64,1.05c1.41,1.84,2.82,4.34,2.33,6.75-.11.55-.37,1.02-.65,1.5,2.58.74,5.35.76,7.98.24.06-.48-.09-.92-.28-1.35-.64-1.46-2.49-3.14-3.85-3.96l-1.09-.59Z"/><path class="cls-1" d="M56.24,10.46c.16.25-.52,1.48-.48,1.85-.21-.03-.44-.11-.59-.27-.1-.1-.14-.36-.29-.27.01-.76.44-1.73,1.36-1.31Z"/><path class="cls-1" d="M67.37,60.24c-.11.12-.65.38-.83.46-3.89,1.76-10.49.94-13.9-1.65-.21-.16-.91-.71-.97-.93-.15-.51.89-1.22,1.26-1.45,3.71-2.3,10.77-2.53,13.72,1.12.38.47,1.21,1.91.72,2.45ZM60.16,55.57h-.15s-.24,2.3-.24,2.3c-.18-.09-.32-.24-.54-.2-.09.32.45.42.49.61l-.1,2.03c.14-.14.16-.47.19-.67.07-.48.09-.96.17-1.44.49-.21.98-.14,1.49-.09.17-.14-.62-.32-.67-.33-.3-.05-.51-.05-.79.04.12-.74.17-1.49.15-2.25ZM55,57.23c-.2-.04-.49.03-.71,0,0,.34.59.22.83.29.05.03-.49.96-.52,1.07-.02.09-.02.09.05.15.18,0,.57-.79.65-.96.27-.57.53-1.19.59-1.82h-.19s-.5,1.37-.5,1.37c-.09.03-.17-.09-.22-.1ZM63.82,57.62c-.16-.05-.1.21-.08.3.12.77.59,1.95.99,2.63.04.06,0,.12.12.1l-1.03-3.03Z"/><path class="cls-1" d="M42.97,49.32c.3.43.54.86.59,1.39.01.13.06.62-.12.6-.17-.02-.19-.68-.23-.83-.05-.2-.36-.96-.52-1.04-.3-.14-.89.74-.96.76-.28.06-.11-.46-.05-.59.42-.88,1.93-1.18,2.64-.49.07.07.34.43.15.49-.16,0-.22-.15-.36-.22-.38-.18-.73-.1-1.12-.07Z"/><path class="cls-1" d="M61.95,68.91c.7.65-.07,1.66-.96,1.18-.79-.43.18-1.9.96-1.18Z"/><path class="cls-1" d="M67.29,25.39c.1,0,.02-.16.13-.19.34-.11.88.63,1,.89.09.2.18.38-.13.43-.66.09-1.93-.51-2.42-.95-.34-.31-.44-.54.07-.77.57-.26,1.16.02,1.35.59Z"/><path class="cls-1" d="M65.09,23.49l-.24-1.17c.17-.03.23.14.35.22.09.06.47.26.48.3-.01.14-.42.81-.58.65Z"/></svg>